<svg width="15" height="20" viewBox="0 0 15 20" fill="none" xmlns="http://www.w3.org/2000/svg">
<path d="M11.1251 6.53833H12.8126C13.2601 6.53833 13.6894 6.72068 14.0058 7.04526C14.3223 7.36985 14.5001 7.81008 14.5001 8.26911V17.2692C14.5001 17.7282 14.3223 18.1684 14.0058 18.493C13.6894 18.8176 13.2601 19 12.8126 19H2.68751C2.23996 19 1.81073 18.8176 1.49426 18.493C1.17779 18.1684 1 17.7282 1 17.2692V8.26911C1 7.81008 1.17779 7.36985 1.49426 7.04526C1.81073 6.72068 2.23996 6.53833 2.68751 6.53833H4.37502" stroke="white" stroke-linecap="round" stroke-linejoin="round"/>
<path d="M4.37451 10.6924L7.74954 14.1539L11.1246 10.6924" stroke="white" stroke-linecap="round" stroke-linejoin="round"/>
<path d="M7.75049 1V13.4616" stroke="white" stroke-linecap="round" stroke-linejoin="round"/>
</svg>
