<svg width="315" height="106" viewBox="0 0 315 106" fill="none" xmlns="http://www.w3.org/2000/svg">
<g clip-path="url(#clip0)">
<path d="M120.224 1.05824C120.224 0.471161 119.748 0 119.164 0C118.58 0 118.104 0.4749 118.104 1.05824V104.938C118.104 105.525 118.58 105.996 119.164 105.996C119.752 105.996 120.224 105.521 120.224 104.938V1.05824Z" fill="#F6F9FF"/>
<path d="M105.48 61.4152C110.135 32.5169 90.4464 5.32217 61.5042 0.674089C32.562 -3.974 5.32597 15.6847 0.670828 44.583C-3.98432 73.4814 15.7042 100.676 44.6465 105.324C73.5887 109.972 100.825 90.3136 105.48 61.4152Z" fill="#0C7697"/>
<path d="M103.37 56.7193C105.428 28.9865 84.5805 4.83868 56.8056 2.78368C29.0307 0.728676 4.84621 21.5447 2.78809 49.2775C0.729963 77.0103 21.5776 101.158 49.3525 103.213C77.1274 105.268 101.312 84.4521 103.37 56.7193Z" fill="white"/>
<path d="M87.9819 87.8514C107.259 68.6032 107.259 37.3956 87.9819 18.1474C68.7044 -1.10087 37.4495 -1.10087 18.172 18.1474C-1.10544 37.3956 -1.10544 68.6032 18.172 87.8514C37.4495 107.1 68.7044 107.1 87.9819 87.8514Z" fill="#002C4D"/>
<path d="M82.0182 66.2732C89.3617 50.3142 82.3577 31.4328 66.3745 24.1005C50.3913 16.7682 31.4813 23.7615 24.1378 39.7205C16.7944 55.6795 23.7983 74.5608 39.7815 81.8932C55.7647 89.2255 74.6748 82.2322 82.0182 66.2732Z" fill="white"/>
<path d="M68.6207 58.069C68.5832 58.2111 68.4372 58.327 68.2874 58.327H37.8701C37.724 58.327 37.5742 58.2111 37.5368 58.069L37.1323 56.4536C37.0948 56.3115 37.1885 56.1956 37.3345 56.1956H68.8192C68.9652 56.1956 69.0551 56.3115 69.0214 56.4536L68.6207 58.069Z" fill="#002C4D"/>
<path d="M70.819 54.6138C70.7479 54.898 70.4483 55.1298 70.1562 55.1298H36.0013C35.7092 55.1298 35.4096 54.898 35.3384 54.6138L34.5295 51.383C34.4583 51.0988 34.6418 50.8669 34.934 50.8669H71.2235C71.5156 50.8669 71.6991 51.0988 71.628 51.383L70.819 54.6138Z" fill="#002C4D"/>
<path d="M18.2345 32.0241C18.8 32.4616 19.4254 32.7757 20.0958 32.9515C20.5302 33.0674 20.9759 33.1235 21.4103 33.1235C21.6425 33.1235 21.8822 33.1085 22.1144 33.0748C22.7885 32.9814 23.4589 32.7308 24.1143 32.3307C24.7659 31.9343 25.3576 31.3921 25.8782 30.7228C26.4961 29.9263 27.0466 28.9802 27.5185 27.9033C27.5597 27.8061 27.5335 27.6902 27.4473 27.6266L23.8109 24.8108C23.7622 24.7734 23.7023 24.7547 23.6386 24.7622C23.5787 24.7697 23.5225 24.8034 23.4813 24.852L22.4177 26.2206C22.3391 26.3215 22.3578 26.4711 22.4589 26.5496L24.8782 28.4231C24.6386 28.8232 24.3839 29.2009 24.118 29.5449C23.5113 30.3264 22.796 30.7751 21.9871 30.8761C21.1781 30.9771 20.3992 30.7452 19.6689 30.1768C18.8637 29.5524 18.4405 28.8531 18.3806 28.0454C18.3207 27.2377 18.6502 26.3664 19.358 25.454C19.6951 25.0202 20.2194 24.4668 20.9122 23.8124C21.0059 23.7227 21.0096 23.5768 20.9235 23.4834L19.8524 22.3391C19.77 22.2494 19.6314 22.2381 19.5341 22.3167C18.815 22.8888 18.1521 23.5656 17.5604 24.3247C16.9013 25.1736 16.4781 26.0785 16.2946 27.0208C16.1111 27.9706 16.1897 28.8942 16.5193 29.773C16.8563 30.6443 17.4331 31.4033 18.2345 32.0241Z" fill="white"/>
<path d="M26.2189 23.8086C26.5522 24.2648 26.9642 24.6424 27.4398 24.9341C27.9154 25.222 28.4285 25.4165 28.964 25.51C29.17 25.5474 29.3872 25.5623 29.6044 25.5623C29.949 25.5623 30.3085 25.5174 30.6755 25.4277C31.2672 25.2819 31.8402 25.0089 32.372 24.62C32.9038 24.2311 33.3345 23.7712 33.6491 23.2551C33.9674 22.7354 34.1622 22.2006 34.2371 21.6622C34.312 21.1237 34.2783 20.5815 34.1434 20.043C34.0086 19.5045 33.7689 18.9997 33.4394 18.5435L29.9939 13.8356C29.919 13.7309 29.7692 13.7085 29.6681 13.7833L28.1813 14.8677C28.1326 14.9051 28.0989 14.9612 28.0877 15.021C28.0765 15.0809 28.0952 15.1444 28.1289 15.193L31.5931 19.9271C31.9863 20.4618 32.1323 20.9891 32.0387 21.535C31.9451 22.0847 31.6455 22.5372 31.1249 22.9148C30.6044 23.2925 30.0726 23.4458 29.5295 23.371C28.9865 23.2963 28.5259 22.9934 28.1289 22.4512L24.6647 17.7171C24.6273 17.6685 24.5711 17.6349 24.5112 17.6236C24.4512 17.6162 24.3876 17.6311 24.3389 17.6648L22.8259 18.7679C22.7772 18.8053 22.7435 18.8614 22.7323 18.9212C22.721 18.981 22.7398 19.0446 22.7735 19.0932L26.2189 23.8086Z" fill="white"/>
<path d="M36.971 21.3146C36.9972 21.3707 37.0459 21.4156 37.1021 21.4343C37.1283 21.4455 37.1545 21.4492 37.1807 21.4492C37.2144 21.4492 37.2481 21.4417 37.2818 21.4268L38.9821 20.634C39.0982 20.5779 39.1506 20.4396 39.0944 20.3237L34.9711 11.5249C34.9149 11.409 34.7764 11.3567 34.6603 11.4127L32.96 12.2055C32.9039 12.2317 32.8589 12.2803 32.8402 12.3364C32.8177 12.3962 32.8215 12.4598 32.8477 12.5159L36.971 21.3146Z" fill="white"/>
<path d="M49.4722 17.5601C49.5059 17.5077 49.5171 17.4442 49.5021 17.3843L47.3375 7.91624C47.3075 7.7891 47.1839 7.71057 47.0566 7.74049L45.2627 8.14808C45.2028 8.16304 45.1504 8.20043 45.1167 8.25278C45.0829 8.30513 45.0717 8.3687 45.0867 8.42853L46.4349 14.3143L40.7387 9.28111C40.6825 9.2325 40.6039 9.21006 40.5327 9.22876L38.765 9.63261C38.7051 9.64757 38.6527 9.68496 38.619 9.73731C38.5853 9.78966 38.574 9.85323 38.589 9.91306L40.7537 19.3812C40.7686 19.441 40.8061 19.4933 40.8585 19.527C40.896 19.5494 40.9409 19.5644 40.9821 19.5644C41.0008 19.5644 41.0158 19.5606 41.0345 19.5569L42.8022 19.1531C42.9295 19.1231 43.0082 18.9997 42.9782 18.8726L41.63 12.9831L47.3412 18.0163C47.3974 18.0649 47.476 18.0836 47.5472 18.0686L49.3261 17.6648C49.386 17.6498 49.4384 17.6124 49.4722 17.5601Z" fill="white"/>
<path d="M60.1604 18.1734C60.1679 18.1734 60.1717 18.1734 60.1791 18.1734C60.299 18.1734 60.4039 18.0799 60.4113 17.9565L61.1828 8.27525C61.1866 8.21168 61.1678 8.15185 61.1266 8.10324C61.0855 8.05462 61.0293 8.02845 60.9656 8.02097L59.1305 7.87513C58.9957 7.86018 58.8871 7.96114 58.8796 8.08828L58.4003 14.1049L54.4717 7.59842C54.4342 7.53485 54.3631 7.49372 54.2882 7.48624L52.4831 7.34414C52.352 7.33293 52.2396 7.43015 52.2322 7.55729L51.4607 17.2385C51.4569 17.3021 51.4757 17.3619 51.5168 17.4105C51.558 17.4591 51.6142 17.4853 51.6779 17.4928L53.483 17.6349C53.6178 17.6461 53.7264 17.5489 53.7339 17.4218L54.2133 11.4014L58.1531 17.9116C58.1905 17.9752 58.2617 18.0163 58.3366 18.0238L60.1604 18.1734Z" fill="white"/>
<path d="M62.2052 18.7567L68.7591 21.1648C68.7853 21.1761 68.8115 21.1798 68.8415 21.1798C68.8752 21.1798 68.9089 21.1723 68.9388 21.1574C68.995 21.1312 69.04 21.0826 69.0587 21.0265L69.613 19.5233C69.6579 19.4036 69.5942 19.269 69.4744 19.2241L64.9017 17.5451L65.6432 15.5296L69.9275 17.1039C70.0511 17.1487 70.1822 17.0852 70.2271 16.9655L70.7814 15.4623C70.8039 15.4025 70.8001 15.3389 70.7739 15.2828C70.7477 15.2267 70.699 15.1818 70.6428 15.1631L66.3585 13.5889L66.9914 11.8762L71.5641 13.5552C71.6203 13.5776 71.6877 13.5739 71.7439 13.5477C71.8001 13.5216 71.845 13.4729 71.8675 13.4169L72.4217 11.9136C72.4442 11.8538 72.4405 11.7902 72.4142 11.7341C72.388 11.678 72.3393 11.6332 72.2832 11.6145L65.7293 9.20632C65.6095 9.16145 65.4747 9.22502 65.4297 9.34468L62.0704 18.4613C62.0479 18.5211 62.0517 18.5847 62.0779 18.6408C62.1004 18.6894 62.1453 18.7342 62.2052 18.7567Z" fill="white"/>
<path d="M76.2493 23.502C75.8636 23.4497 75.3992 23.229 74.8711 22.8476C74.0135 22.2306 73.1821 21.3593 72.4106 20.2674C72.3732 20.2151 72.317 20.1814 72.2533 20.1702C72.1897 20.1627 72.126 20.1777 72.0736 20.2188L70.8939 21.1612C70.804 21.2322 70.7778 21.3593 70.8377 21.4603C71.141 21.995 71.5605 22.5522 72.0848 23.1131C72.6054 23.674 73.1447 24.1527 73.6877 24.5416C74.6876 25.2632 75.6726 25.6334 76.6163 25.6447H76.6613C77.6162 25.6447 78.3728 25.267 78.9158 24.5154C79.0431 24.3396 79.148 24.1714 79.2266 24.018C79.3128 23.8498 79.3764 23.6778 79.4139 23.4983C79.4476 23.3337 79.4663 23.1729 79.4738 23.0308C79.4813 22.8701 79.4551 22.6943 79.3951 22.4924C79.3427 22.3129 79.2865 22.1484 79.2266 21.9988C79.1667 21.8455 79.0693 21.651 78.942 21.4229C78.8147 21.1986 78.6948 20.9966 78.5825 20.8134C78.4701 20.6339 78.3241 20.3983 78.1406 20.1179C78.1331 20.1029 78.1218 20.0842 78.1106 20.073C77.4552 19.0634 77.0507 18.3791 76.9084 18.0425C76.7923 17.7695 76.8073 17.5452 76.9571 17.3395C77.0994 17.1413 77.268 17.0778 77.5039 17.1301C77.796 17.1937 78.2454 17.4405 78.8334 17.8668C79.6648 18.4651 80.4513 19.1793 81.1703 19.987C81.2115 20.0356 81.2714 20.0618 81.3351 20.0655C81.395 20.0655 81.4624 20.0431 81.5074 20.002L82.6122 18.9437C82.6983 18.8614 82.7095 18.7268 82.6346 18.6296C82.3238 18.2332 81.9193 17.7995 81.4287 17.3395C80.9419 16.8833 80.47 16.4869 80.0243 16.1691C78.927 15.3801 77.9608 14.9613 77.1594 14.9276C76.3242 14.8902 75.6126 15.2604 75.0621 16.027C74.8936 16.2588 74.7625 16.4907 74.6726 16.7113C74.579 16.9431 74.5266 17.1862 74.5228 17.433C74.5191 17.6723 74.5416 17.9079 74.5902 18.136C74.6389 18.3604 74.7326 18.6221 74.8711 18.9138C75.0022 19.1942 75.152 19.4747 75.3168 19.7477C75.4778 20.0169 75.6875 20.346 75.9385 20.7199C76.5489 21.6286 76.9272 22.2493 77.062 22.5634C77.1706 22.8177 77.1556 23.0234 77.017 23.2141C76.826 23.4609 76.5789 23.5469 76.2493 23.502Z" fill="white"/>
<path d="M83.4622 26.9759C83.5446 27.2863 83.6607 27.6565 83.7992 28.079C84.1438 29.1186 84.3385 29.8178 84.3835 30.1544C84.4172 30.4273 84.3497 30.6218 84.1662 30.7676C83.934 30.9546 83.6794 30.977 83.3648 30.8387C83.009 30.6854 82.6195 30.3488 82.2113 29.8403C81.5485 29.0139 80.9867 27.9556 80.5335 26.6955C80.5111 26.6356 80.4661 26.587 80.4062 26.5608C80.3463 26.5347 80.2789 26.5347 80.219 26.5608L78.8295 27.1517C78.7247 27.1965 78.6648 27.3124 78.6947 27.4246C78.8445 28.0192 79.0992 28.6661 79.4512 29.3504C79.8033 30.0272 80.1927 30.6368 80.6084 31.1565C81.3799 32.1175 82.23 32.742 83.1326 33.0038C83.4285 33.0898 83.7168 33.1347 83.994 33.1347C84.5932 33.1347 85.1474 32.9327 85.6455 32.5364C85.8141 32.4017 85.9601 32.2709 86.08 32.14C86.211 32.0016 86.3159 31.8483 86.3983 31.6875C86.4732 31.5379 86.5369 31.3921 86.5818 31.25C86.6305 31.1004 86.6529 30.9172 86.6492 30.7115C86.6455 30.5246 86.6342 30.3488 86.6192 30.1918C86.6043 30.0272 86.5631 29.8216 86.4994 29.5598C86.4357 29.3093 86.3758 29.0812 86.3159 28.8792C86.2597 28.6773 86.1773 28.4081 86.08 28.0902C86.0762 28.0715 86.0687 28.0491 86.065 28.0379C85.7055 26.8862 85.4995 26.1196 85.4545 25.7606C85.4171 25.4652 85.492 25.2558 85.6905 25.095C85.8815 24.9417 86.0575 24.9267 86.271 25.0389C86.5369 25.181 86.9001 25.54 87.357 26.1046C87.9974 26.9049 88.5629 27.8023 89.0385 28.7745C89.0648 28.8306 89.1172 28.8755 89.1771 28.8942C89.237 28.9129 89.3044 28.9092 89.3606 28.8792L90.7088 28.1575C90.8137 28.1015 90.8586 27.9743 90.8137 27.8621C90.6227 27.3985 90.3456 26.8712 90.001 26.2991C89.6527 25.727 89.3044 25.2184 88.9636 24.7921C88.1173 23.7376 87.3008 23.0757 86.5369 22.8252C85.7429 22.5672 84.9564 22.7355 84.2224 23.3188C83.9977 23.4983 83.8105 23.6853 83.6644 23.8722C83.5109 24.0704 83.3985 24.291 83.3236 24.5266C83.2562 24.7547 83.2113 24.9866 83.2 25.2221C83.185 25.4577 83.2075 25.727 83.2599 26.0448C83.3086 26.3514 83.3798 26.6655 83.4622 26.9759Z" fill="white"/>
<path d="M17.4257 59.628C17.4294 59.628 17.4294 59.628 17.4332 59.628C17.5643 59.628 17.6654 59.5233 17.6654 59.3962C17.6654 59.3737 17.6616 59.355 17.6579 59.3326L17.6279 57.5527C17.6279 57.4442 17.553 57.3545 17.4482 57.3283L11.898 56.0419L17.4145 54.1872C17.5118 54.1536 17.5755 54.0638 17.5755 53.9629L17.553 52.6391C17.553 52.5382 17.4856 52.4484 17.3882 52.4185L11.8193 50.7433L17.3208 49.2774C17.4257 49.2512 17.4968 49.154 17.4931 49.0493L17.4631 47.2133C17.4631 47.1422 17.4257 47.0749 17.3695 47.0301C17.3133 46.9852 17.2384 46.974 17.1673 46.9927L7.48257 49.6289C7.37771 49.6588 7.3103 49.7523 7.3103 49.857L7.33277 51.3565C7.33277 51.4575 7.40393 51.5472 7.5013 51.5771L13.4934 53.3683L7.56122 55.3651C7.46385 55.3988 7.40018 55.4885 7.40018 55.5895L7.42265 57.0778C7.42265 57.1862 7.49755 57.2759 7.60242 57.3021L17.3695 59.6243C17.3882 59.628 17.407 59.628 17.4257 59.628Z" fill="white"/>
<path d="M16.5792 71.5641C17.4668 71.2426 18.2233 70.734 18.8262 70.0534C19.4292 69.3691 19.8262 68.5726 20.0097 67.6827C20.1894 66.7927 20.1183 65.8953 19.7999 65.009C19.4816 64.1228 18.9573 63.3861 18.2495 62.814C17.5417 62.2419 16.7215 61.8792 15.819 61.7371C14.9164 61.595 14.0101 61.6847 13.1188 62.0063C12.2312 62.3279 11.4747 62.8364 10.8755 63.5207C10.2725 64.2088 9.8793 65.0053 9.70328 65.899C9.52727 66.7927 9.60217 67.6902 9.9205 68.5764C10.2388 69.4589 10.7594 70.1955 11.4635 70.7677C12.1675 71.336 12.9802 71.695 13.8828 71.8371C14.1561 71.882 14.4333 71.9007 14.7104 71.9007C15.3358 71.9007 15.965 71.7885 16.5792 71.5641ZM17.6765 67.9108C17.2945 68.5839 16.6616 69.0812 15.7965 69.3953C15.3321 69.5636 14.8864 69.6458 14.467 69.6458C14.1 69.6458 13.7404 69.5823 13.4034 69.4514C12.6881 69.1784 12.1975 68.6549 11.9091 67.8547C11.6207 67.0545 11.6619 66.344 12.0364 65.6784C12.4147 65.0128 13.0439 64.5154 13.9127 64.2013C14.3809 64.033 14.8303 63.947 15.2534 63.947C15.6167 63.947 15.9725 64.0106 16.3058 64.134C17.0249 64.4032 17.5117 64.923 17.8038 65.7232C18.0997 66.5272 18.0547 67.2414 17.6765 67.9108Z" fill="white"/>
<path d="M24.5936 79.6375C25.3089 79.1027 25.7396 78.381 25.8707 77.4985C26.0018 76.6123 25.7733 75.771 25.1891 74.9894L22.1556 70.9322C22.1182 70.8836 22.062 70.8499 22.0021 70.8425C21.9421 70.8312 21.8785 70.8499 21.8298 70.8873L14.0363 76.7021C13.9876 76.7395 13.9539 76.7955 13.9465 76.8554C13.939 76.9152 13.9539 76.9788 13.9914 77.0274L15.1149 78.5269C15.1936 78.6316 15.3396 78.6503 15.4407 78.5755L18.1671 76.5413L19.3768 78.1567L18.0997 82.356C18.0772 82.427 18.0922 82.5056 18.1372 82.5617L19.5116 84.3977C19.5565 84.4575 19.6277 84.4912 19.6989 84.4912C19.7138 84.4912 19.7251 84.4912 19.74 84.4874C19.8262 84.4725 19.8973 84.4089 19.9236 84.3229L21.2306 79.9404C21.7249 80.1909 22.2567 80.3068 22.811 80.2806C23.4589 80.2545 24.0581 80.0338 24.5936 79.6375ZM21.8373 73.8003L23.4102 75.9018C23.6386 76.2047 23.7285 76.5226 23.6873 76.8778C23.6461 77.2256 23.4776 77.506 23.1705 77.7379C22.8522 77.9734 22.5301 78.0632 22.1818 78.0108C21.8335 77.9585 21.5489 77.779 21.3167 77.4649L19.7438 75.3634L21.8373 73.8003Z" fill="white"/>
<path d="M25.2791 86.6002L30.2076 80.4489C30.29 80.3479 30.2712 80.2021 30.1701 80.1198L28.7058 78.9494C28.6571 78.912 28.5972 78.8933 28.5335 78.9008C28.4699 78.9083 28.4137 78.9382 28.3762 78.9868L22.3018 86.574C22.2643 86.6226 22.2456 86.6824 22.2531 86.746C22.2606 86.8058 22.2905 86.8657 22.3392 86.903L27.5411 91.0575C27.586 91.0911 27.6347 91.1098 27.6872 91.1098C27.7546 91.1098 27.8257 91.0799 27.8707 91.0238L28.8743 89.7712C28.9118 89.7225 28.9305 89.6627 28.923 89.5991C28.9155 89.5393 28.8856 89.4832 28.8369 89.4421L25.2791 86.6002Z" fill="white"/>
<path d="M39.1507 86.3795C38.4691 85.583 37.5666 84.9136 36.4618 84.3901L34.4769 83.4478C34.3608 83.3917 34.2223 83.4403 34.1661 83.56L29.9866 92.3325C29.9604 92.3886 29.9566 92.4522 29.9791 92.512C30.0016 92.5719 30.0428 92.6205 30.099 92.6467L32.0838 93.589C33.1849 94.1125 34.2784 94.3929 35.327 94.4154C35.3832 94.4154 35.4356 94.4154 35.4918 94.4154C36.4843 94.4154 37.3756 94.191 38.1471 93.7498C38.9635 93.2824 39.5927 92.598 40.0121 91.7118C40.4315 90.8256 40.5701 89.9094 40.4166 88.9821C40.263 88.0622 39.8398 87.1872 39.1507 86.3795ZM35.8701 86.4468C36.3157 86.6599 36.7127 86.9179 37.0498 87.2133C37.3831 87.5087 37.649 87.8378 37.8437 88.1931C38.0347 88.5408 38.1321 88.9335 38.1396 89.3597C38.1471 89.786 38.0422 90.231 37.8287 90.676C37.6153 91.121 37.3381 91.48 37.0011 91.7455C36.6678 92.011 36.297 92.1792 35.9075 92.2503C35.5068 92.3251 35.0799 92.3251 34.6454 92.254C34.2035 92.1792 33.7541 92.0371 33.3085 91.824L32.9152 91.637L35.4768 86.2598L35.8701 86.4468Z" fill="white"/>
<path d="M54.6515 94.6548C55.1571 94.4229 55.5728 94.0752 55.8949 93.6227C56.2731 93.0917 56.4716 92.4822 56.4866 91.8166C56.5091 90.9229 56.2057 90.1414 55.5878 89.4907C54.9699 88.8401 54.1647 88.4998 53.191 88.4773L48.1202 88.3577C48.1202 88.3577 48.1164 88.3577 48.1127 88.3577C47.9853 88.3577 47.8805 88.4586 47.8805 88.5858L47.6483 98.2969C47.6445 98.4241 47.7494 98.5325 47.8767 98.5363L49.753 98.5811C49.8167 98.5774 49.8766 98.5587 49.9215 98.5175C49.9665 98.4727 49.9927 98.4166 49.9927 98.353L50.0751 94.9577L52.0974 95.0063L54.6178 98.6036C54.659 98.6634 54.7302 98.7008 54.8051 98.7045L57.1008 98.7606H57.1045C57.1907 98.7606 57.2693 98.712 57.3105 98.6372C57.3517 98.5587 57.3442 98.4652 57.2955 98.3942L54.6515 94.6548ZM50.1874 90.3769L52.8127 90.4405C53.191 90.448 53.4981 90.5751 53.7527 90.8257C54.0036 91.0725 54.1197 91.3791 54.1085 91.7642C54.0973 92.1606 53.9699 92.4672 53.7153 92.7066C53.4681 92.9384 53.1685 93.0506 52.7977 93.0506L50.1275 92.987L50.1874 90.3769Z" fill="white"/>
<path d="M67.4708 94.5838C67.4409 94.4604 67.3173 94.3819 67.1862 94.4118L62.4562 95.5785L61.9394 93.4957L66.3698 92.4C66.4934 92.3701 66.572 92.243 66.542 92.1158L66.1563 90.5603C66.1413 90.5004 66.1039 90.4481 66.0514 90.4182C65.999 90.3845 65.9353 90.377 65.8754 90.392L61.445 91.4876L61.0069 89.7152L65.7369 88.5485C65.8604 88.5186 65.9391 88.3914 65.9091 88.2643L65.5234 86.7087C65.5084 86.6489 65.471 86.5965 65.4185 86.5666C65.3661 86.533 65.3024 86.5255 65.2425 86.5404L58.464 88.2157C58.404 88.2306 58.3516 88.268 58.3217 88.3204C58.288 88.3727 58.2805 88.4363 58.2954 88.4961L60.6324 97.9231C60.6586 98.0278 60.7559 98.0988 60.8608 98.0988C60.8795 98.0988 60.8983 98.0951 60.917 98.0913L67.6955 96.4161C67.7554 96.4011 67.8079 96.3638 67.8378 96.3114C67.8715 96.2591 67.879 96.1955 67.864 96.1357L67.4708 94.5838Z" fill="white"/>
<path d="M77.4962 89.3672C77.455 89.3224 77.3951 89.2962 77.3314 89.2925C77.2678 89.2925 77.2078 89.3112 77.1629 89.356C76.8633 89.6365 76.5974 89.8608 76.3689 90.0254C76.1405 90.1899 75.8521 90.3694 75.5151 90.5564C74.5226 91.1023 73.6126 91.2743 72.8037 91.0724C71.9872 90.8705 71.3656 90.3582 70.9012 89.5168C70.4368 88.6792 70.3394 87.8827 70.5978 87.09C70.8562 86.301 71.4929 85.6241 72.4853 85.0744C73.0808 84.7454 73.7174 84.4986 74.3841 84.3341C74.444 84.3191 74.4964 84.278 74.5301 84.2256C74.5601 84.1733 74.5713 84.1059 74.5526 84.0461L74.1369 82.5279C74.1032 82.412 73.9908 82.341 73.871 82.3597C73.0696 82.4943 72.1857 82.8271 71.2532 83.3394C70.3132 83.8554 69.5642 84.5248 69.0324 85.3212C68.4969 86.1215 68.2047 87.0002 68.1673 87.9276C68.1298 88.855 68.3583 89.7711 68.8451 90.6461C69.332 91.5249 69.9874 92.2054 70.7926 92.6691C71.5603 93.1104 72.4142 93.3347 73.3317 93.3347H73.4665C74.429 93.3123 75.3915 93.0393 76.3352 92.5195C77.2303 92.0259 77.9756 91.4463 78.5448 90.7994C78.6235 90.7097 78.6235 90.5751 78.5411 90.4853L77.4962 89.3672Z" fill="white"/>
<path d="M85.02 78.5942C84.3609 77.9173 83.5857 77.4387 82.7168 77.1695C81.8442 76.9002 80.9529 76.8666 80.0691 77.0648C79.1815 77.2667 78.3913 77.7005 77.7134 78.3548C77.0393 79.0092 76.5787 79.787 76.3465 80.6695C76.1143 81.5483 76.118 82.442 76.3615 83.3245C76.6011 84.2032 77.058 84.9922 77.7134 85.6728C78.3725 86.3496 79.1478 86.8283 80.0204 87.0937C80.511 87.2433 81.0128 87.3181 81.5109 87.3181C81.8966 87.3181 82.2861 87.2732 82.6756 87.1835C83.5632 86.9778 84.3534 86.5403 85.0312 85.8859C85.7054 85.2315 86.166 84.4538 86.3982 83.5787C86.6304 82.7037 86.6229 81.8175 86.3832 80.935C86.1323 80.06 85.6754 79.271 85.02 78.5942ZM83.552 84.3677C82.9415 84.9623 82.2749 85.2166 81.5146 85.1455C80.7507 85.0745 80.0391 84.7043 79.3949 84.0424C78.7508 83.3806 78.4025 82.6551 78.3501 81.8885C78.3014 81.1257 78.5748 80.4676 79.1852 79.873C79.732 79.342 80.3237 79.084 80.9941 79.084C81.0727 79.084 81.1551 79.0878 81.2338 79.0952C82.0052 79.1663 82.7206 79.5365 83.361 80.1984C84.0014 80.8602 84.3497 81.5857 84.3946 82.3485C84.4395 83.1151 84.1624 83.7732 83.552 84.3677Z" fill="white"/>
<path d="M95.3115 70.3415L90.7725 70.9473C90.7987 70.3938 90.6863 69.8628 90.4354 69.3692C90.1396 68.7896 89.6939 68.3297 89.1097 68.0044C88.3307 67.5706 87.4918 67.4734 86.6304 67.7164C85.7691 67.9595 85.0912 68.5129 84.6156 69.3618L82.1513 73.7854C82.0877 73.8976 82.1289 74.0397 82.2412 74.1033L90.7425 78.8224C90.7762 78.8411 90.8174 78.8523 90.8549 78.8523C90.8773 78.8523 90.8998 78.8486 90.9185 78.8448C90.9784 78.8299 91.0271 78.7887 91.0571 78.7326L91.9671 77.0948C92.0308 76.9826 91.9896 76.8405 91.8773 76.7769L88.9037 75.1241L89.8849 73.3592L94.2441 72.8057C94.319 72.7945 94.3827 72.7534 94.4202 72.6861L95.5362 70.6818C95.5811 70.6032 95.5736 70.5098 95.5249 70.435C95.4875 70.3677 95.4014 70.3303 95.3115 70.3415ZM84.904 72.903L86.181 70.6107C86.3645 70.2817 86.6192 70.0685 86.96 69.9601C87.2933 69.8554 87.6229 69.8928 87.9562 70.0797C88.3045 70.2742 88.5179 70.5322 88.6078 70.8687C88.7015 71.209 88.6528 71.5381 88.4655 71.8821L87.1884 74.1743L84.904 72.903Z" fill="white"/>
<path d="M96.1391 58.8352C95.5062 58.1396 94.701 57.676 93.7461 57.4553C92.7911 57.2347 91.8623 57.302 90.9897 57.6498C90.1208 57.9975 89.3568 58.5996 88.7164 59.4447C88.0835 60.2823 87.6229 61.3069 87.3495 62.4923L86.8551 64.6312C86.8402 64.691 86.8514 64.7546 86.8851 64.8069C86.9188 64.8593 86.9712 64.8967 87.0312 64.9116L96.5099 67.0954C96.5286 67.0992 96.5436 67.1029 96.5623 67.1029C96.6073 67.1029 96.6485 67.0917 96.6859 67.0655C96.7384 67.0319 96.7758 66.9795 96.7908 66.9197L97.2851 64.7845C97.5585 63.5954 97.596 62.4736 97.3937 61.4453C97.1915 60.402 96.7683 59.5269 96.1391 58.8352ZM89.3905 63.0494L89.4879 62.6269C89.6003 62.1445 89.7651 61.7033 89.9823 61.3144C90.1995 60.9255 90.4616 60.5964 90.7687 60.3272C91.0683 60.0654 91.4316 59.8859 91.8436 59.7887C92.2593 59.6915 92.7162 59.6952 93.1955 59.8074C93.6786 59.9196 94.0869 60.1103 94.4202 60.3833C94.7497 60.6525 94.9969 60.9741 95.1505 61.3405C95.3077 61.7182 95.4014 62.1296 95.4276 62.5708C95.4501 63.0195 95.4089 63.4907 95.2965 63.9693L95.1991 64.3919L89.3905 63.0494Z" fill="white"/>
<path d="M98.9254 51.1208C98.8767 49.8906 98.5621 48.8847 97.9891 48.1368C97.3974 47.3628 96.6259 46.9888 95.6859 47.0262C95.4725 47.0337 95.274 47.0561 95.1017 47.0861C94.9144 47.1197 94.7384 47.1795 94.5774 47.2618C94.4276 47.3366 94.289 47.4189 94.1729 47.5049C94.0419 47.5984 93.9183 47.7255 93.7984 47.8975C93.6898 48.0508 93.5924 48.1967 93.5138 48.3313C93.4314 48.4734 93.3378 48.6641 93.2367 48.9109C93.1393 49.1502 93.0494 49.3671 92.9783 49.569C92.9034 49.7672 92.8097 50.0289 92.7011 50.3393C92.6936 50.358 92.6861 50.3767 92.6787 50.3954C92.2854 51.5359 91.9933 52.2763 91.8173 52.5904C91.6712 52.8522 91.4877 52.9756 91.1994 52.9868C90.9747 52.9868 90.8323 52.8933 90.7312 52.6876C90.6002 52.4147 90.5215 51.9098 90.4915 51.1881C90.4504 50.1636 90.529 49.1053 90.7275 48.0433C90.7387 47.9798 90.7237 47.9162 90.6863 47.8639C90.6488 47.8115 90.5927 47.7778 90.529 47.7704L89.016 47.5535C88.8999 47.5385 88.7838 47.6133 88.7538 47.7292C88.6303 48.2191 88.5404 48.8024 88.4805 49.4718C88.4205 50.1374 88.4018 50.7506 88.4205 51.3003C88.473 52.6502 88.7351 53.6673 89.2033 54.318C89.6939 55.0023 90.4279 55.3276 91.3604 55.294C91.6488 55.2828 91.9109 55.2454 92.1394 55.1781C92.379 55.1107 92.6038 54.9986 92.8022 54.8527C92.9932 54.7106 93.1655 54.5461 93.3153 54.3666C93.4651 54.1871 93.6112 53.9515 93.7572 53.6674C93.8958 53.3906 94.0269 53.099 94.143 52.8036C94.2591 52.5081 94.3864 52.1529 94.5287 51.7154C94.8695 50.6721 95.1279 49.9953 95.2927 49.6999C95.4275 49.4606 95.596 49.3446 95.8657 49.3334C96.1466 49.3334 96.3525 49.4643 96.5173 49.7522C96.7121 50.085 96.8244 50.5861 96.8506 51.2405C96.8918 52.2987 96.7158 53.4841 96.3301 54.7667C96.3113 54.8303 96.3188 54.8939 96.3525 54.95C96.3862 55.006 96.4387 55.0472 96.5023 55.0621L97.9741 55.4099C97.9929 55.4136 98.0116 55.4174 98.0266 55.4174C98.1202 55.4174 98.2063 55.3613 98.2438 55.2715C98.4797 54.7032 98.6595 54.0301 98.7793 53.271C98.9029 52.5044 98.9479 51.7864 98.9254 51.1208Z" fill="white"/>
<path d="M93.675 89.0422V88.5112H96.4464V89.0422H95.3678V91.7383H94.7574V89.0422H93.675Z" fill="black"/>
<path d="M97.0903 91.7383V88.5112H97.682L98.7344 90.3847L99.783 88.5112H100.375V91.7383H99.783V89.6069L98.9029 91.1886H98.5584L97.682 89.6031V91.7383H97.0903Z" fill="black"/>
<path d="M41.3754 62.6123C41.2444 62.6759 41.1357 62.8442 41.1357 62.99V76.3957C41.1357 76.5415 41.2444 76.7135 41.3754 76.7733L43.5438 77.7231C43.6786 77.7792 43.791 77.7044 43.791 77.5586V61.8233C43.791 61.6775 43.6786 61.6027 43.5438 61.6588L41.3754 62.6123Z" fill="#002C4D"/>
<path d="M46.7047 60.6641C46.5624 60.6978 46.4463 60.8436 46.4463 60.9894V78.3962C46.4463 78.542 46.5624 78.6879 46.7047 78.7215L48.8394 79.1516C48.9817 79.1777 49.1015 79.0768 49.1015 78.9309V60.4472C49.1015 60.3014 48.9854 60.2042 48.8394 60.2266L46.7047 60.6641Z" fill="#002C4D"/>
<path d="M53.0788 59.8901C52.6331 59.8901 52.0152 59.9126 52.0152 59.9126C51.8691 59.9201 51.7493 60.0435 51.7493 60.1893V79.2003C51.7493 79.3461 51.8691 79.4695 52.0152 79.477C52.0152 79.477 52.6331 79.4994 53.0788 79.4994C53.5244 79.4994 54.1386 79.477 54.1386 79.477C54.2847 79.4695 54.4045 79.3461 54.4045 79.2003V60.1893C54.4045 60.0435 54.2847 59.9201 54.1386 59.9126C54.1424 59.9126 53.5244 59.8901 53.0788 59.8901Z" fill="#002C4D"/>
<path d="M57.3217 60.2344C57.1794 60.2082 57.0596 60.3091 57.0596 60.455V78.9387C57.0596 79.0846 57.1757 79.1818 57.3217 79.1593L59.4564 78.7293C59.5987 78.6957 59.7148 78.5498 59.7148 78.404V60.9897C59.7148 60.8439 59.5987 60.698 59.4564 60.6644L57.3217 60.2344Z" fill="#002C4D"/>
<path d="M62.6136 61.6627C62.4788 61.6066 62.3665 61.6814 62.3665 61.8272V77.5625C62.3665 77.7084 62.4751 77.7831 62.6136 77.7271L64.782 76.7773C64.9131 76.7137 65.0217 76.5454 65.0217 76.3996V62.9939C65.0217 62.8481 64.9131 62.6798 64.782 62.6162L62.6136 61.6627Z" fill="#002C4D"/>
<path d="M52.8577 26.8412C52.9776 26.5757 53.176 26.5757 53.2959 26.8412L56.2844 33.4412C56.4043 33.7067 56.7413 33.9535 57.0334 33.9872L64.5423 34.8173C64.8344 34.8509 64.8943 35.0342 64.6734 35.2286L59.1644 40.0823C58.9434 40.2768 58.8161 40.6694 58.876 40.9573L60.4377 48.2155C60.5014 48.5034 60.3366 48.6268 60.0782 48.4922L53.5468 45.0968C53.2884 44.9622 52.8615 44.9622 52.5993 45.0968L46.0792 48.4884C45.817 48.6231 45.656 48.4997 45.7159 48.2155L47.2626 41.0022C47.3225 40.7143 47.1952 40.3216 46.9742 40.1272L41.4653 35.2398C41.2443 35.0454 41.3042 34.8584 41.5964 34.8285L49.1089 33.9946C49.401 33.961 49.7381 33.7179 49.8579 33.4487L52.8577 26.8412Z" fill="#CE9700"/>
<path d="M136.249 45.0858C137.496 46.3497 139.009 47.3668 140.743 48.1109C142.484 48.8551 144.342 49.2365 146.267 49.2365C148.836 49.2365 151.233 48.597 153.39 47.3331C155.547 46.0692 157.274 44.3304 158.517 42.1616C159.76 39.9927 160.393 37.5883 160.393 35.0119C160.393 33.0899 160.022 31.2276 159.288 29.4739C158.558 27.7239 157.551 26.1907 156.3 24.9193C155.049 23.6479 153.529 22.6233 151.791 21.8792C150.049 21.1313 148.188 20.7537 146.267 20.7537C143.694 20.7537 141.297 21.4006 139.14 22.672C136.987 23.9433 135.268 25.6896 134.036 27.8622C132.803 30.031 132.178 32.4392 132.178 35.0194C132.178 36.9526 132.545 38.8148 133.272 40.5611C134.002 42.2999 135.002 43.8219 136.249 45.0858ZM146.267 27.1629C148.476 27.1629 150.15 27.8659 151.394 29.3131C152.641 30.7677 153.274 32.6823 153.274 35.0119C153.274 37.3415 152.641 39.2523 151.398 40.692C150.154 42.1279 148.48 42.8234 146.271 42.8234C144.061 42.8234 142.391 42.1279 141.162 40.692C139.93 39.2523 139.305 37.3415 139.305 35.0119C139.305 32.6823 139.934 30.764 141.174 29.3093C142.406 27.8659 144.072 27.1629 146.267 27.1629Z" fill="#F6F9FF"/>
<path d="M164.797 48.7915H170.797C171.108 48.7915 171.359 48.541 171.359 48.2306V37.6856H183.826C184.137 37.6856 184.388 37.435 184.388 37.1247V31.9905C184.388 31.6801 184.137 31.4296 183.826 31.4296H171.359V27.3985H185.268C185.579 27.3985 185.83 27.148 185.83 26.8376V21.7035C185.83 21.3931 185.579 21.1426 185.268 21.1426H164.797C164.487 21.1426 164.236 21.3931 164.236 21.7035V48.2306C164.236 48.5372 164.487 48.7915 164.797 48.7915Z" fill="#F6F9FF"/>
<path d="M190.354 48.7915H196.353C196.664 48.7915 196.915 48.541 196.915 48.2306V37.6856H209.382C209.693 37.6856 209.944 37.435 209.944 37.1247V31.9905C209.944 31.6801 209.693 31.4296 209.382 31.4296H196.915V27.3985H210.824C211.135 27.3985 211.386 27.148 211.386 26.8376V21.7035C211.386 21.3931 211.135 21.1426 210.824 21.1426H190.354C190.043 21.1426 189.792 21.3931 189.792 21.7035V48.2306C189.792 48.5372 190.043 48.7915 190.354 48.7915Z" fill="#F6F9FF"/>
<path d="M216.082 48.7915H222.082C222.392 48.7915 222.643 48.541 222.643 48.2306V21.7035C222.643 21.3931 222.392 21.1426 222.082 21.1426H216.082C215.771 21.1426 215.52 21.3931 215.52 21.7035V48.2306C215.52 48.5372 215.775 48.7915 216.082 48.7915Z" fill="#F6F9FF"/>
<path d="M241.863 49.2366C244.653 49.2366 247.278 48.8103 249.668 47.9652C249.941 47.868 250.095 47.5801 250.027 47.2996L248.821 42.4534C248.784 42.3076 248.69 42.1804 248.555 42.1019C248.424 42.0271 248.267 42.0047 248.121 42.0496C246.312 42.5656 244.488 42.8273 242.706 42.8273C239.713 42.8273 237.421 42.0982 235.893 40.6622C234.354 39.2151 233.605 37.3566 233.605 34.9784C233.605 32.6002 234.354 30.7492 235.89 29.3133C237.418 27.8886 239.71 27.1669 242.702 27.1669C244.496 27.1669 246.32 27.4286 248.117 27.9446C248.263 27.9858 248.417 27.9671 248.548 27.8923C248.679 27.8175 248.776 27.6941 248.814 27.5483L250.14 22.6086C250.214 22.3244 250.061 22.0327 249.784 21.9355C247.578 21.1539 244.911 20.7576 241.863 20.7576C239.65 20.7576 237.556 21.1315 235.642 21.8644C233.725 22.6011 232.077 23.6219 230.744 24.9008C229.414 26.1797 228.358 27.7016 227.609 29.4292C226.86 31.1605 226.478 33.0264 226.478 34.9747C226.478 36.9266 226.86 38.7926 227.621 40.5276C228.377 42.259 229.437 43.7846 230.774 45.0672C232.111 46.3498 233.759 47.3782 235.669 48.1186C237.575 48.8627 239.661 49.2366 241.863 49.2366Z" fill="#F6F9FF"/>
<path d="M254.398 48.7915H260.397C260.708 48.7915 260.959 48.541 260.959 48.2306V21.7035C260.959 21.3931 260.708 21.1426 260.397 21.1426H254.398C254.087 21.1426 253.836 21.3931 253.836 21.7035V48.2306C253.836 48.5372 254.087 48.7915 254.398 48.7915Z" fill="#F6F9FF"/>
<path d="M265.142 48.7915H271.026C271.258 48.7915 271.468 48.6457 271.55 48.4288L273.479 43.3283H282.516L284.407 48.425C284.489 48.6457 284.699 48.7915 284.935 48.7915H290.796C290.979 48.7915 291.152 48.7018 291.257 48.5484C291.361 48.3951 291.384 48.2044 291.32 48.0324L281.268 21.5053C281.186 21.2884 280.976 21.1426 280.744 21.1426H275.25C275.018 21.1426 274.808 21.2847 274.726 21.5053L264.618 48.0324C264.554 48.2044 264.577 48.3989 264.682 48.5484C264.787 48.698 264.959 48.7915 265.142 48.7915ZM275.306 37.7117L277.995 29.4889L280.654 37.7117H275.306Z" fill="#F6F9FF"/>
<path d="M314.438 42.5355H302.203V21.7035C302.203 21.3931 301.952 21.1426 301.642 21.1426H295.642C295.331 21.1426 295.08 21.3931 295.08 21.7035V48.2306C295.08 48.541 295.331 48.7915 295.642 48.7915H314.438C314.749 48.7915 315 48.541 315 48.2306V43.0964C315 42.7861 314.749 42.5355 314.438 42.5355Z" fill="#F6F9FF"/>
<path d="M148.593 57.9342C148.51 57.7174 148.3 57.5715 148.068 57.5715H142.672C142.439 57.5715 142.23 57.7136 142.147 57.9342L132.215 83.9977C132.152 84.1697 132.174 84.3641 132.279 84.5137C132.384 84.667 132.556 84.7568 132.743 84.7568H138.522C138.754 84.7568 138.964 84.6109 139.046 84.3941L140.938 79.387H149.802L151.656 84.3903C151.738 84.6109 151.948 84.7568 152.184 84.7568H157.944C158.127 84.7568 158.3 84.667 158.405 84.5137C158.509 84.3604 158.532 84.1697 158.468 83.9977L148.593 57.9342ZM147.967 73.849H142.739L145.368 65.8131L147.967 73.849Z" fill="#F6F9FF"/>
<path d="M178.212 57.5715H155.21C154.899 57.5715 154.648 57.8221 154.648 58.1324V63.1768C154.648 63.4872 154.899 63.7378 155.21 63.7378H163.221V84.1959C163.221 84.5062 163.472 84.7568 163.782 84.7568H169.677C169.988 84.7568 170.239 84.5062 170.239 84.1959V63.7378H178.212C178.523 63.7378 178.774 63.4872 178.774 63.1768V58.1324C178.774 57.8221 178.523 57.5715 178.212 57.5715Z" fill="#F6F9FF"/>
<path d="M205.457 57.5715H182.455C182.144 57.5715 181.894 57.8221 181.894 58.1324V63.1768C181.894 63.4872 182.144 63.7378 182.455 63.7378H190.466V84.1959C190.466 84.5062 190.717 84.7568 191.028 84.7568H196.922C197.233 84.7568 197.484 84.5062 197.484 84.1959V63.7378H205.457C205.768 63.7378 206.019 63.4872 206.019 63.1768V58.1324C206.019 57.8221 205.768 57.5715 205.457 57.5715Z" fill="#F6F9FF"/>
<path d="M229.122 57.5715H209.948C209.637 57.5715 209.386 57.8221 209.386 58.1324V84.1959C209.386 84.5062 209.637 84.7568 209.948 84.7568H229.122C229.433 84.7568 229.684 84.5062 229.684 84.1959V79.1515C229.684 78.8411 229.433 78.5905 229.122 78.5905H216.404V73.8453H228.377C228.688 73.8453 228.939 73.5947 228.939 73.2844V68.24C228.939 67.9296 228.688 67.6791 228.377 67.6791H216.404V63.7378H229.122C229.433 63.7378 229.684 63.4872 229.684 63.1768V58.1324C229.684 57.8221 229.433 57.5715 229.122 57.5715Z" fill="#F6F9FF"/>
<path d="M260.97 57.5715H255.326C255.128 57.5715 254.944 57.6762 254.843 57.8482L247.29 70.6519L239.736 57.8482C239.635 57.6762 239.451 57.5715 239.253 57.5715H233.609C233.298 57.5715 233.047 57.8221 233.047 58.1324V84.1959C233.047 84.5062 233.298 84.7568 233.609 84.7568H239.253C239.563 84.7568 239.814 84.5062 239.814 84.1959V70.5322L245.2 79.6675C245.301 79.8395 245.484 79.9442 245.683 79.9442H248.859C249.057 79.9442 249.241 79.8395 249.342 79.6712L254.765 70.5546V84.1996C254.765 84.51 255.016 84.7605 255.326 84.7605H260.97C261.281 84.7605 261.532 84.51 261.532 84.1996V58.1362C261.532 57.8221 261.281 57.5715 260.97 57.5715Z" fill="#F6F9FF"/>
<path d="M283.841 58.7943C282.411 57.9829 280.778 57.5715 278.995 57.5715H265.285C264.974 57.5715 264.723 57.8221 264.723 58.1324V84.1959C264.723 84.5062 264.974 84.7568 265.285 84.7568H271.082C271.393 84.7568 271.644 84.5062 271.644 84.1959V75.872H278.977C280.755 75.872 282.392 75.4457 283.838 74.6006C285.287 73.7555 286.414 72.6188 287.197 71.224C287.976 69.8329 288.369 68.2886 288.369 66.6395C288.369 64.9867 287.972 63.4536 287.186 62.0887C286.403 60.7126 285.276 59.6095 283.841 58.7943ZM271.7 63.3563H278.007C278.894 63.3563 279.636 63.663 280.276 64.2987C280.913 64.9306 281.224 65.6972 281.224 66.6358C281.224 67.5818 280.909 68.3634 280.261 69.029C279.617 69.6908 278.883 70.0124 278.01 70.0124H271.655L271.7 63.3563Z" fill="#F6F9FF"/>
<path d="M314.349 57.5715H291.346C291.036 57.5715 290.785 57.8221 290.785 58.1324V63.1768C290.785 63.4872 291.036 63.7378 291.346 63.7378H299.357V84.1959C299.357 84.5062 299.608 84.7568 299.919 84.7568H305.814C306.124 84.7568 306.375 84.5062 306.375 84.1959V63.7378H314.349C314.659 63.7378 314.91 63.4872 314.91 63.1768V58.1324C314.91 57.8221 314.659 57.5715 314.349 57.5715Z" fill="#F6F9FF"/>
</g>
<defs>
<clipPath id="clip0">
<rect width="315" height="106" fill="white"/>
</clipPath>
</defs>
</svg>
