<svg width="315" height="106" viewBox="0 0 315 106" fill="none" xmlns="http://www.w3.org/2000/svg">
<g clip-path="url(#clip0)">
<path d="M120.224 1.05824C120.224 0.471161 119.748 0 119.164 0C118.58 0 118.104 0.4749 118.104 1.05824V104.938C118.104 105.525 118.58 105.996 119.164 105.996C119.752 105.996 120.224 105.521 120.224 104.938V1.05824Z" fill="#002C4D"/>
<path d="M105.48 61.4154C110.135 32.517 90.4464 5.3223 61.5042 0.674211C32.562 -3.97387 5.32597 15.6848 0.670828 44.5832C-3.98432 73.4815 15.7042 100.676 44.6465 105.324C73.5887 109.972 100.825 90.3137 105.48 61.4154Z" fill="#0C7697"/>
<path d="M103.37 56.7193C105.428 28.9865 84.5805 4.83868 56.8056 2.78368C29.0307 0.728676 4.84621 21.5447 2.78809 49.2775C0.729963 77.0103 21.5776 101.158 49.3525 103.213C77.1274 105.268 101.312 84.4521 103.37 56.7193Z" fill="white"/>
<path d="M87.9819 87.8515C107.259 68.6033 107.259 37.3957 87.9819 18.1475C68.7044 -1.10074 37.4495 -1.10074 18.172 18.1475C-1.10544 37.3957 -1.10544 68.6033 18.172 87.8515C37.4495 107.1 68.7044 107.1 87.9819 87.8515Z" fill="#002C4D"/>
<path d="M82.0182 66.2731C89.3617 50.3141 82.3577 31.4327 66.3745 24.1004C50.3913 16.7681 31.4813 23.7614 24.1378 39.7204C16.7944 55.6794 23.7983 74.5607 39.7815 81.893C55.7647 89.2254 74.6748 82.2321 82.0182 66.2731Z" fill="white"/>
<path d="M68.6207 58.0687C68.5832 58.2108 68.4372 58.3268 68.2874 58.3268H37.8701C37.724 58.3268 37.5742 58.2108 37.5368 58.0687L37.1323 56.4533C37.0948 56.3112 37.1885 56.1953 37.3345 56.1953H68.8192C68.9652 56.1953 69.0551 56.3112 69.0214 56.4533L68.6207 58.0687Z" fill="#002C4D"/>
<path d="M70.819 54.6135C70.7479 54.8977 70.4483 55.1296 70.1562 55.1296H36.0013C35.7092 55.1296 35.4096 54.8977 35.3384 54.6135L34.5295 51.3827C34.4583 51.0985 34.6418 50.8667 34.934 50.8667H71.2235C71.5156 50.8667 71.6991 51.0985 71.628 51.3827L70.819 54.6135Z" fill="#002C4D"/>
<path d="M18.2345 32.0241C18.8 32.4616 19.4254 32.7757 20.0958 32.9515C20.5302 33.0674 20.9759 33.1235 21.4103 33.1235C21.6425 33.1235 21.8822 33.1085 22.1144 33.0748C22.7885 32.9814 23.4589 32.7308 24.1143 32.3307C24.7659 31.9343 25.3576 31.3921 25.8782 30.7228C26.4961 29.9263 27.0466 28.9802 27.5185 27.9033C27.5597 27.8061 27.5335 27.6902 27.4473 27.6266L23.8109 24.8108C23.7622 24.7734 23.7023 24.7547 23.6386 24.7622C23.5787 24.7697 23.5225 24.8034 23.4813 24.852L22.4177 26.2206C22.3391 26.3215 22.3578 26.4711 22.4589 26.5496L24.8782 28.4231C24.6386 28.8232 24.3839 29.2009 24.118 29.5449C23.5113 30.3264 22.796 30.7751 21.9871 30.8761C21.1781 30.9771 20.3992 30.7452 19.6689 30.1768C18.8637 29.5524 18.4405 28.8531 18.3806 28.0454C18.3207 27.2377 18.6502 26.3664 19.358 25.454C19.6951 25.0202 20.2194 24.4668 20.9122 23.8124C21.0059 23.7227 21.0096 23.5768 20.9235 23.4834L19.8524 22.3391C19.77 22.2494 19.6314 22.2381 19.5341 22.3167C18.815 22.8888 18.1521 23.5656 17.5604 24.3247C16.9013 25.1736 16.4781 26.0785 16.2946 27.0208C16.1111 27.9706 16.1897 28.8942 16.5193 29.773C16.8563 30.6443 17.4331 31.4033 18.2345 32.0241Z" fill="white"/>
<path d="M26.2189 23.8086C26.5522 24.2648 26.9642 24.6424 27.4398 24.9341C27.9154 25.222 28.4285 25.4165 28.964 25.51C29.17 25.5474 29.3872 25.5623 29.6044 25.5623C29.949 25.5623 30.3085 25.5174 30.6755 25.4277C31.2672 25.2819 31.8402 25.0089 32.372 24.62C32.9038 24.2311 33.3345 23.7712 33.6491 23.2551C33.9674 22.7354 34.1622 22.2006 34.2371 21.6622C34.312 21.1237 34.2783 20.5815 34.1434 20.043C34.0086 19.5045 33.7689 18.9997 33.4394 18.5435L29.9939 13.8356C29.919 13.7309 29.7692 13.7085 29.6681 13.7833L28.1813 14.8677C28.1326 14.9051 28.0989 14.9612 28.0877 15.021C28.0765 15.0809 28.0952 15.1444 28.1289 15.193L31.5931 19.9271C31.9863 20.4618 32.1323 20.9891 32.0387 21.535C31.9451 22.0847 31.6455 22.5372 31.1249 22.9148C30.6044 23.2925 30.0726 23.4458 29.5295 23.371C28.9865 23.2963 28.5259 22.9934 28.1289 22.4512L24.6647 17.7171C24.6273 17.6685 24.5711 17.6349 24.5112 17.6236C24.4512 17.6162 24.3876 17.6311 24.3389 17.6648L22.8259 18.7679C22.7772 18.8053 22.7435 18.8614 22.7323 18.9212C22.721 18.981 22.7398 19.0446 22.7735 19.0932L26.2189 23.8086Z" fill="white"/>
<path d="M36.971 21.3146C36.9972 21.3707 37.0459 21.4156 37.1021 21.4343C37.1283 21.4455 37.1545 21.4492 37.1807 21.4492C37.2144 21.4492 37.2481 21.4417 37.2818 21.4268L38.9821 20.634C39.0982 20.5779 39.1506 20.4396 39.0944 20.3237L34.9711 11.5249C34.9149 11.409 34.7764 11.3567 34.6603 11.4127L32.96 12.2055C32.9039 12.2317 32.8589 12.2803 32.8402 12.3364C32.8177 12.3962 32.8215 12.4598 32.8477 12.5159L36.971 21.3146Z" fill="white"/>
<path d="M49.4722 17.5598C49.5059 17.5075 49.5171 17.4439 49.5021 17.3841L47.3375 7.91599C47.3075 7.78885 47.1839 7.71033 47.0566 7.74024L45.2627 8.14783C45.2028 8.16279 45.1504 8.20019 45.1167 8.25254C45.0829 8.30489 45.0717 8.36846 45.0867 8.42829L46.4349 14.3141L40.7387 9.28086C40.6825 9.23225 40.6039 9.20982 40.5327 9.22851L38.765 9.63237C38.7051 9.64732 38.6527 9.68472 38.619 9.73707C38.5853 9.78942 38.574 9.85299 38.589 9.91282L40.7537 19.3809C40.7686 19.4407 40.8061 19.4931 40.8585 19.5267C40.896 19.5492 40.9409 19.5641 40.9821 19.5641C41.0008 19.5641 41.0158 19.5604 41.0345 19.5567L42.8022 19.1528C42.9295 19.1229 43.0082 18.9995 42.9782 18.8724L41.63 12.9828L47.3412 18.016C47.3974 18.0647 47.476 18.0833 47.5472 18.0684L49.3261 17.6645C49.386 17.6496 49.4384 17.6122 49.4722 17.5598Z" fill="white"/>
<path d="M60.1604 18.1734C60.1679 18.1734 60.1717 18.1734 60.1791 18.1734C60.299 18.1734 60.4039 18.0799 60.4113 17.9565L61.1828 8.27525C61.1866 8.21168 61.1678 8.15185 61.1266 8.10324C61.0855 8.05462 61.0293 8.02845 60.9656 8.02097L59.1305 7.87513C58.9957 7.86018 58.8871 7.96114 58.8796 8.08828L58.4003 14.1049L54.4717 7.59842C54.4342 7.53485 54.3631 7.49372 54.2882 7.48624L52.4831 7.34414C52.352 7.33293 52.2396 7.43015 52.2322 7.55729L51.4607 17.2385C51.4569 17.3021 51.4757 17.3619 51.5168 17.4105C51.558 17.4591 51.6142 17.4853 51.6779 17.4928L53.483 17.6349C53.6178 17.6461 53.7264 17.5489 53.7339 17.4218L54.2133 11.4014L58.1531 17.9116C58.1905 17.9752 58.2617 18.0163 58.3366 18.0238L60.1604 18.1734Z" fill="white"/>
<path d="M62.2052 18.7567L68.7591 21.1648C68.7853 21.1761 68.8115 21.1798 68.8415 21.1798C68.8752 21.1798 68.9089 21.1723 68.9388 21.1574C68.995 21.1312 69.04 21.0826 69.0587 21.0265L69.613 19.5233C69.6579 19.4036 69.5942 19.269 69.4744 19.2241L64.9017 17.5451L65.6432 15.5296L69.9275 17.1039C70.0511 17.1487 70.1822 17.0852 70.2271 16.9655L70.7814 15.4623C70.8039 15.4025 70.8001 15.3389 70.7739 15.2828C70.7477 15.2267 70.699 15.1818 70.6428 15.1631L66.3585 13.5889L66.9914 11.8762L71.5641 13.5552C71.6203 13.5776 71.6877 13.5739 71.7439 13.5477C71.8001 13.5216 71.845 13.4729 71.8675 13.4169L72.4217 11.9136C72.4442 11.8538 72.4405 11.7902 72.4142 11.7341C72.388 11.678 72.3393 11.6332 72.2832 11.6145L65.7293 9.20632C65.6095 9.16145 65.4747 9.22502 65.4297 9.34468L62.0704 18.4613C62.0479 18.5211 62.0517 18.5847 62.0779 18.6408C62.1004 18.6894 62.1453 18.7342 62.2052 18.7567Z" fill="white"/>
<path d="M76.2493 23.5022C75.8636 23.4499 75.3992 23.2293 74.8711 22.8479C74.0135 22.2309 73.1821 21.3596 72.4106 20.2677C72.3732 20.2153 72.317 20.1817 72.2533 20.1705C72.1897 20.163 72.126 20.1779 72.0736 20.2191L70.8939 21.1614C70.804 21.2325 70.7778 21.3596 70.8377 21.4606C71.141 21.9953 71.5605 22.5524 72.0848 23.1134C72.6054 23.6743 73.1447 24.1529 73.6877 24.5418C74.6876 25.2635 75.6726 25.6337 76.6163 25.6449H76.6613C77.6162 25.6449 78.3728 25.2672 78.9158 24.5156C79.0431 24.3399 79.148 24.1716 79.2266 24.0183C79.3128 23.85 79.3764 23.678 79.4139 23.4985C79.4476 23.334 79.4663 23.1732 79.4738 23.0311C79.4813 22.8703 79.4551 22.6945 79.3951 22.4926C79.3427 22.3131 79.2865 22.1486 79.2266 21.999C79.1667 21.8457 79.0693 21.6513 78.942 21.4232C78.8147 21.1988 78.6948 20.9969 78.5825 20.8136C78.4701 20.6342 78.3241 20.3986 78.1406 20.1181C78.1331 20.1032 78.1218 20.0845 78.1106 20.0732C77.4552 19.0636 77.0507 18.3793 76.9084 18.0428C76.7923 17.7698 76.8073 17.5454 76.9571 17.3398C77.0994 17.1416 77.268 17.078 77.5039 17.1304C77.796 17.1939 78.2454 17.4407 78.8334 17.867C79.6648 18.4653 80.4513 19.1795 81.1703 19.9872C81.2115 20.0359 81.2714 20.062 81.3351 20.0658C81.395 20.0658 81.4624 20.0433 81.5074 20.0022L82.6122 18.944C82.6983 18.8617 82.7095 18.7271 82.6346 18.6298C82.3238 18.2335 81.9193 17.7997 81.4287 17.3398C80.9419 16.8836 80.47 16.4872 80.0243 16.1693C78.927 15.3803 77.9608 14.9615 77.1594 14.9279C76.3242 14.8905 75.6126 15.2607 75.0621 16.0272C74.8936 16.2591 74.7625 16.4909 74.6726 16.7115C74.579 16.9434 74.5266 17.1864 74.5228 17.4332C74.5191 17.6726 74.5416 17.9081 74.5902 18.1362C74.6389 18.3606 74.7326 18.6224 74.8711 18.914C75.0022 19.1945 75.152 19.4749 75.3168 19.7479C75.4778 20.0172 75.6875 20.3462 75.9385 20.7202C76.5489 21.6288 76.9272 22.2496 77.062 22.5637C77.1706 22.8179 77.1556 23.0236 77.017 23.2143C76.826 23.4611 76.5789 23.5471 76.2493 23.5022Z" fill="white"/>
<path d="M83.4622 26.9757C83.5446 27.286 83.6607 27.6562 83.7992 28.0788C84.1438 29.1183 84.3385 29.8176 84.3835 30.1541C84.4172 30.4271 84.3497 30.6215 84.1662 30.7674C83.934 30.9544 83.6794 30.9768 83.3648 30.8384C83.009 30.6851 82.6195 30.3486 82.2113 29.84C81.5485 29.0136 80.9867 27.9554 80.5335 26.6952C80.5111 26.6354 80.4661 26.5868 80.4062 26.5606C80.3463 26.5344 80.2789 26.5344 80.219 26.5606L78.8295 27.1514C78.7247 27.1963 78.6648 27.3122 78.6947 27.4244C78.8445 28.0189 79.0992 28.6659 79.4512 29.3502C79.8033 30.027 80.1927 30.6365 80.6084 31.1563C81.3799 32.1173 82.23 32.7418 83.1326 33.0035C83.4285 33.0895 83.7168 33.1344 83.994 33.1344C84.5932 33.1344 85.1474 32.9325 85.6455 32.5361C85.8141 32.4015 85.9601 32.2706 86.08 32.1397C86.211 32.0014 86.3159 31.8481 86.3983 31.6873C86.4732 31.5377 86.5369 31.3919 86.5818 31.2498C86.6305 31.1002 86.6529 30.917 86.6492 30.7113C86.6455 30.5243 86.6342 30.3486 86.6192 30.1915C86.6043 30.027 86.5631 29.8213 86.4994 29.5596C86.4357 29.309 86.3758 29.0809 86.3159 28.879C86.2597 28.6771 86.1773 28.4078 86.08 28.09C86.0762 28.0713 86.0687 28.0489 86.065 28.0376C85.7055 26.8859 85.4995 26.1193 85.4545 25.7604C85.4171 25.465 85.492 25.2556 85.6905 25.0948C85.8815 24.9414 86.0575 24.9265 86.271 25.0387C86.5369 25.1808 86.9001 25.5397 87.357 26.1044C87.9974 26.9046 88.5629 27.8021 89.0385 28.7743C89.0648 28.8304 89.1172 28.8753 89.1771 28.894C89.237 28.9127 89.3044 28.9089 89.3606 28.879L90.7088 28.1573C90.8137 28.1012 90.8586 27.9741 90.8137 27.8619C90.6227 27.3982 90.3456 26.871 90.001 26.2988C89.6527 25.7267 89.3044 25.2182 88.9636 24.7919C88.1173 23.7374 87.3008 23.0755 86.5369 22.825C85.7429 22.5669 84.9564 22.7352 84.2224 23.3186C83.9977 23.498 83.8105 23.685 83.6644 23.872C83.5109 24.0702 83.3985 24.2908 83.3236 24.5264C83.2562 24.7545 83.2113 24.9863 83.2 25.2219C83.185 25.4575 83.2075 25.7267 83.2599 26.0446C83.3086 26.3512 83.3798 26.6653 83.4622 26.9757Z" fill="white"/>
<path d="M17.4257 59.6279C17.4294 59.6279 17.4294 59.6279 17.4332 59.6279C17.5643 59.6279 17.6654 59.5232 17.6654 59.396C17.6654 59.3736 17.6616 59.3549 17.6579 59.3325L17.6279 57.5525C17.6279 57.4441 17.553 57.3543 17.4482 57.3282L11.898 56.0418L17.4145 54.1871C17.5118 54.1534 17.5755 54.0637 17.5755 53.9627L17.553 52.639C17.553 52.538 17.4856 52.4483 17.3882 52.4184L11.8193 50.7431L17.3208 49.2773C17.4257 49.2511 17.4968 49.1539 17.4931 49.0492L17.4631 47.2132C17.4631 47.1421 17.4257 47.0748 17.3695 47.0299C17.3133 46.9851 17.2384 46.9738 17.1673 46.9925L7.48257 49.6288C7.37771 49.6587 7.3103 49.7522 7.3103 49.8569L7.33277 51.3564C7.33277 51.4574 7.40393 51.5471 7.5013 51.577L13.4934 53.3682L7.56122 55.365C7.46385 55.3987 7.40018 55.4884 7.40018 55.5894L7.42265 57.0776C7.42265 57.1861 7.49755 57.2758 7.60242 57.302L17.3695 59.6241C17.3882 59.6279 17.407 59.6279 17.4257 59.6279Z" fill="white"/>
<path d="M16.5792 71.5643C17.4668 71.2427 18.2233 70.7341 18.8262 70.0536C19.4292 69.3693 19.8262 68.5728 20.0097 67.6828C20.1894 66.7928 20.1183 65.8954 19.7999 65.0091C19.4816 64.1229 18.9573 63.3863 18.2495 62.8141C17.5417 62.242 16.7215 61.8793 15.819 61.7372C14.9164 61.5951 14.0101 61.6848 13.1188 62.0064C12.2312 62.328 11.4747 62.8366 10.8755 63.5209C10.2725 64.2089 9.8793 65.0054 9.70328 65.8991C9.52727 66.7928 9.60217 67.6903 9.9205 68.5765C10.2388 69.459 10.7594 70.1957 11.4635 70.7678C12.1675 71.3362 12.9802 71.6951 13.8828 71.8372C14.1561 71.8821 14.4333 71.9008 14.7104 71.9008C15.3358 71.9008 15.965 71.7886 16.5792 71.5643ZM17.6765 67.9109C17.2945 68.584 16.6616 69.0813 15.7965 69.3954C15.3321 69.5637 14.8864 69.646 14.467 69.646C14.1 69.646 13.7404 69.5824 13.4034 69.4515C12.6881 69.1785 12.1975 68.655 11.9091 67.8548C11.6207 67.0546 11.6619 66.3441 12.0364 65.6785C12.4147 65.0129 13.0439 64.5155 13.9127 64.2014C14.3809 64.0332 14.8303 63.9472 15.2534 63.9472C15.6167 63.9472 15.9725 64.0107 16.3058 64.1341C17.0249 64.4034 17.5117 64.9231 17.8038 65.7234C18.0997 66.5273 18.0547 67.2416 17.6765 67.9109Z" fill="white"/>
<path d="M24.5936 79.6376C25.3089 79.1029 25.7396 78.3812 25.8707 77.4987C26.0018 76.6124 25.7733 75.7711 25.1891 74.9896L22.1556 70.9323C22.1182 70.8837 22.062 70.8501 22.0021 70.8426C21.9421 70.8314 21.8785 70.8501 21.8298 70.8875L14.0363 76.7022C13.9876 76.7396 13.9539 76.7957 13.9465 76.8555C13.939 76.9153 13.9539 76.9789 13.9914 77.0275L15.1149 78.527C15.1936 78.6317 15.3396 78.6504 15.4407 78.5756L18.1671 76.5414L19.3768 78.1568L18.0997 82.3561C18.0772 82.4272 18.0922 82.5057 18.1372 82.5618L19.5116 84.3978C19.5565 84.4576 19.6277 84.4913 19.6989 84.4913C19.7138 84.4913 19.7251 84.4913 19.74 84.4876C19.8262 84.4726 19.8973 84.409 19.9236 84.323L21.2306 79.9405C21.7249 80.191 22.2567 80.3069 22.811 80.2808C23.4589 80.2546 24.0581 80.034 24.5936 79.6376ZM21.8373 73.8004L23.4102 75.902C23.6386 76.2048 23.7285 76.5227 23.6873 76.8779C23.6461 77.2257 23.4776 77.5062 23.1705 77.738C22.8522 77.9736 22.5301 78.0633 22.1818 78.011C21.8335 77.9586 21.5489 77.7791 21.3167 77.465L19.7438 75.3635L21.8373 73.8004Z" fill="white"/>
<path d="M25.2791 86.6004L30.2076 80.4491C30.29 80.3482 30.2712 80.2023 30.1701 80.1201L28.7058 78.9497C28.6571 78.9123 28.5972 78.8936 28.5335 78.901C28.4699 78.9085 28.4137 78.9384 28.3762 78.987L22.3018 86.5742C22.2643 86.6228 22.2456 86.6827 22.2531 86.7462C22.2606 86.8061 22.2905 86.8659 22.3392 86.9033L27.5411 91.0577C27.586 91.0914 27.6347 91.1101 27.6872 91.1101C27.7546 91.1101 27.8257 91.0802 27.8707 91.0241L28.8743 89.7714C28.9118 89.7228 28.9305 89.663 28.923 89.5994C28.9155 89.5396 28.8856 89.4835 28.8369 89.4423L25.2791 86.6004Z" fill="white"/>
<path d="M39.1507 86.3792C38.4691 85.5827 37.5666 84.9134 36.4618 84.3899L34.4769 83.4475C34.3608 83.3915 34.2223 83.4401 34.1661 83.5597L29.9866 92.3323C29.9604 92.3884 29.9566 92.452 29.9791 92.5118C30.0016 92.5716 30.0428 92.6202 30.099 92.6464L32.0838 93.5887C33.1849 94.1122 34.2784 94.3927 35.327 94.4151C35.3832 94.4151 35.4356 94.4151 35.4918 94.4151C36.4843 94.4151 37.3756 94.1908 38.1471 93.7495C38.9635 93.2821 39.5927 92.5978 40.0121 91.7116C40.4315 90.8253 40.5701 89.9092 40.4166 88.9818C40.263 88.0619 39.8398 87.1869 39.1507 86.3792ZM35.8701 86.4465C36.3157 86.6597 36.7127 86.9177 37.0498 87.2131C37.3831 87.5085 37.649 87.8376 37.8437 88.1928C38.0347 88.5406 38.1321 88.9332 38.1396 89.3595C38.1471 89.7858 38.0422 90.2308 37.8287 90.6758C37.6153 91.1207 37.3381 91.4797 37.0011 91.7452C36.6678 92.0107 36.297 92.179 35.9075 92.25C35.5068 92.3248 35.0799 92.3248 34.6454 92.2538C34.2035 92.179 33.7541 92.0369 33.3085 91.8237L32.9152 91.6368L35.4768 86.2596L35.8701 86.4465Z" fill="white"/>
<path d="M54.6515 94.6545C55.1571 94.4227 55.5728 94.0749 55.8949 93.6225C56.2731 93.0915 56.4716 92.482 56.4866 91.8163C56.5091 90.9226 56.2057 90.1411 55.5878 89.4905C54.9699 88.8398 54.1647 88.4995 53.191 88.4771L48.1202 88.3574C48.1202 88.3574 48.1164 88.3574 48.1127 88.3574C47.9853 88.3574 47.8805 88.4584 47.8805 88.5855L47.6483 98.2967C47.6445 98.4238 47.7494 98.5323 47.8767 98.536L49.753 98.5809C49.8167 98.5771 49.8766 98.5584 49.9215 98.5173C49.9665 98.4724 49.9927 98.4163 49.9927 98.3528L50.0751 94.9574L52.0974 95.006L54.6178 98.6033C54.659 98.6631 54.7302 98.7005 54.8051 98.7043L57.1008 98.7604H57.1045C57.1907 98.7604 57.2693 98.7118 57.3105 98.637C57.3517 98.5584 57.3442 98.465 57.2955 98.3939L54.6515 94.6545ZM50.1874 90.3767L52.8127 90.4403C53.191 90.4477 53.4981 90.5749 53.7527 90.8254C54.0036 91.0722 54.1197 91.3788 54.1085 91.764C54.0973 92.1604 53.9699 92.467 53.7153 92.7063C53.4681 92.9382 53.1685 93.0503 52.7977 93.0503L50.1275 92.9868L50.1874 90.3767Z" fill="white"/>
<path d="M67.4708 94.5839C67.4409 94.4605 67.3173 94.382 67.1862 94.4119L62.4562 95.5786L61.9394 93.4958L66.3698 92.4001C66.4934 92.3702 66.572 92.2431 66.542 92.116L66.1563 90.5604C66.1413 90.5005 66.1039 90.4482 66.0514 90.4183C65.999 90.3846 65.9353 90.3771 65.8754 90.3921L61.445 91.4877L61.0069 89.7153L65.7369 88.5486C65.8604 88.5187 65.9391 88.3915 65.9091 88.2644L65.5234 86.7088C65.5084 86.649 65.471 86.5966 65.4185 86.5667C65.3661 86.5331 65.3024 86.5256 65.2425 86.5405L58.464 88.2158C58.404 88.2307 58.3516 88.2681 58.3217 88.3205C58.288 88.3728 58.2805 88.4364 58.2954 88.4962L60.6324 97.9232C60.6586 98.0279 60.7559 98.0989 60.8608 98.0989C60.8795 98.0989 60.8983 98.0952 60.917 98.0915L67.6955 96.4162C67.7554 96.4013 67.8079 96.3639 67.8378 96.3115C67.8715 96.2592 67.879 96.1956 67.864 96.1358L67.4708 94.5839Z" fill="white"/>
<path d="M77.4962 89.367C77.455 89.3221 77.3951 89.296 77.3314 89.2922C77.2678 89.2922 77.2078 89.3109 77.1629 89.3558C76.8633 89.6362 76.5974 89.8606 76.3689 90.0251C76.1405 90.1897 75.8521 90.3692 75.5151 90.5561C74.5226 91.1021 73.6126 91.2741 72.8037 91.0722C71.9872 90.8702 71.3656 90.3579 70.9012 89.5166C70.4368 88.679 70.3394 87.8825 70.5978 87.0897C70.8562 86.3007 71.4929 85.6239 72.4853 85.0742C73.0808 84.7451 73.7174 84.4983 74.3841 84.3338C74.444 84.3189 74.4964 84.2777 74.5301 84.2254C74.5601 84.173 74.5713 84.1057 74.5526 84.0459L74.1369 82.5277C74.1032 82.4118 73.9908 82.3407 73.871 82.3594C73.0696 82.494 72.1857 82.8268 71.2532 83.3391C70.3132 83.8552 69.5642 84.5245 69.0324 85.321C68.4969 86.1212 68.2047 87 68.1673 87.9273C68.1298 88.8547 68.3583 89.7709 68.8451 90.6459C69.332 91.5246 69.9874 92.2052 70.7926 92.6689C71.5603 93.1101 72.4142 93.3345 73.3317 93.3345H73.4665C74.429 93.312 75.3915 93.0391 76.3352 92.5193C77.2303 92.0257 77.9756 91.4461 78.5448 90.7992C78.6235 90.7094 78.6235 90.5748 78.5411 90.4851L77.4962 89.367Z" fill="white"/>
<path d="M85.02 78.5942C84.3609 77.9173 83.5857 77.4387 82.7168 77.1695C81.8442 76.9002 80.9529 76.8666 80.0691 77.0648C79.1815 77.2667 78.3913 77.7005 77.7134 78.3548C77.0393 79.0092 76.5787 79.787 76.3465 80.6695C76.1143 81.5483 76.118 82.442 76.3615 83.3245C76.6011 84.2032 77.058 84.9922 77.7134 85.6728C78.3725 86.3496 79.1478 86.8283 80.0204 87.0937C80.511 87.2433 81.0128 87.3181 81.5109 87.3181C81.8966 87.3181 82.2861 87.2732 82.6756 87.1835C83.5632 86.9778 84.3534 86.5403 85.0312 85.8859C85.7054 85.2315 86.166 84.4538 86.3982 83.5787C86.6304 82.7037 86.6229 81.8175 86.3832 80.935C86.1323 80.06 85.6754 79.271 85.02 78.5942ZM83.552 84.3677C82.9415 84.9623 82.2749 85.2166 81.5146 85.1455C80.7507 85.0745 80.0391 84.7043 79.3949 84.0424C78.7508 83.3806 78.4025 82.6551 78.3501 81.8885C78.3014 81.1257 78.5748 80.4676 79.1852 79.873C79.732 79.342 80.3237 79.084 80.9941 79.084C81.0727 79.084 81.1551 79.0878 81.2338 79.0952C82.0052 79.1663 82.7206 79.5365 83.361 80.1984C84.0014 80.8602 84.3497 81.5857 84.3946 82.3485C84.4395 83.1151 84.1624 83.7732 83.552 84.3677Z" fill="white"/>
<path d="M95.3115 70.3414L90.7725 70.9471C90.7987 70.3937 90.6863 69.8627 90.4354 69.3691C90.1396 68.7895 89.6939 68.3296 89.1097 68.0043C88.3307 67.5705 87.4918 67.4733 86.6304 67.7163C85.7691 67.9594 85.0912 68.5128 84.6156 69.3616L82.1513 73.7853C82.0877 73.8975 82.1289 74.0396 82.2412 74.1032L90.7425 78.8223C90.7762 78.841 90.8174 78.8522 90.8549 78.8522C90.8773 78.8522 90.8998 78.8484 90.9185 78.8447C90.9784 78.8297 91.0271 78.7886 91.0571 78.7325L91.9671 77.0947C92.0308 76.9825 91.9896 76.8404 91.8773 76.7768L88.9037 75.124L89.8849 73.359L94.2441 72.8056C94.319 72.7944 94.3827 72.7533 94.4202 72.6859L95.5362 70.6816C95.5811 70.6031 95.5736 70.5096 95.5249 70.4348C95.4875 70.3675 95.4014 70.3301 95.3115 70.3414ZM84.904 72.9028L86.181 70.6106C86.3645 70.2815 86.6192 70.0684 86.96 69.9599C87.2933 69.8552 87.6229 69.8926 87.9562 70.0796C88.3045 70.2741 88.5179 70.5321 88.6078 70.8686C88.7015 71.2089 88.6528 71.538 88.4655 71.882L87.1884 74.1742L84.904 72.9028Z" fill="white"/>
<path d="M96.1391 58.8352C95.5062 58.1396 94.701 57.676 93.7461 57.4553C92.7911 57.2347 91.8623 57.302 90.9897 57.6498C90.1208 57.9975 89.3568 58.5996 88.7164 59.4447C88.0835 60.2823 87.6229 61.3069 87.3495 62.4923L86.8551 64.6312C86.8402 64.691 86.8514 64.7546 86.8851 64.8069C86.9188 64.8593 86.9712 64.8967 87.0312 64.9116L96.5099 67.0954C96.5286 67.0992 96.5436 67.1029 96.5623 67.1029C96.6073 67.1029 96.6485 67.0917 96.6859 67.0655C96.7384 67.0319 96.7758 66.9795 96.7908 66.9197L97.2851 64.7845C97.5585 63.5954 97.596 62.4736 97.3937 61.4453C97.1915 60.402 96.7683 59.5269 96.1391 58.8352ZM89.3905 63.0494L89.4879 62.6269C89.6003 62.1445 89.7651 61.7033 89.9823 61.3144C90.1995 60.9255 90.4616 60.5964 90.7687 60.3272C91.0683 60.0654 91.4316 59.8859 91.8436 59.7887C92.2593 59.6915 92.7162 59.6952 93.1955 59.8074C93.6786 59.9196 94.0869 60.1103 94.4202 60.3833C94.7497 60.6525 94.9969 60.9741 95.1505 61.3405C95.3077 61.7182 95.4014 62.1296 95.4276 62.5708C95.4501 63.0195 95.4089 63.4907 95.2965 63.9693L95.1991 64.3919L89.3905 63.0494Z" fill="white"/>
<path d="M98.9254 51.1211C98.8767 49.8908 98.5621 48.8849 97.9891 48.1371C97.3974 47.363 96.6259 46.9891 95.6859 47.0265C95.4725 47.034 95.274 47.0564 95.1017 47.0863C94.9144 47.12 94.7384 47.1798 94.5774 47.2621C94.4276 47.3368 94.289 47.4191 94.1729 47.5051C94.0419 47.5986 93.9183 47.7257 93.7984 47.8977C93.6898 48.0511 93.5924 48.1969 93.5138 48.3315C93.4314 48.4736 93.3378 48.6643 93.2367 48.9111C93.1393 49.1504 93.0494 49.3673 92.9783 49.5692C92.9034 49.7674 92.8097 50.0292 92.7011 50.3396C92.6936 50.3583 92.6861 50.377 92.6787 50.3956C92.2854 51.5362 91.9933 52.2765 91.8173 52.5907C91.6712 52.8524 91.4877 52.9758 91.1994 52.987C90.9747 52.987 90.8323 52.8935 90.7312 52.6879C90.6002 52.4149 90.5215 51.9101 90.4915 51.1884C90.4504 50.1638 90.529 49.1056 90.7275 48.0436C90.7387 47.98 90.7237 47.9164 90.6863 47.8641C90.6488 47.8117 90.5927 47.7781 90.529 47.7706L89.016 47.5537C88.8999 47.5388 88.7838 47.6136 88.7538 47.7295C88.6303 48.2193 88.5404 48.8027 88.4805 49.472C88.4205 50.1376 88.4018 50.7509 88.4205 51.3006C88.473 52.6505 88.7351 53.6676 89.2033 54.3182C89.6939 55.0025 90.4279 55.3279 91.3604 55.2942C91.6488 55.283 91.9109 55.2456 92.1394 55.1783C92.379 55.111 92.6038 54.9988 92.8022 54.853C92.9932 54.7109 93.1655 54.5463 93.3153 54.3669C93.4651 54.1874 93.6112 53.9518 93.7572 53.6676C93.8958 53.3909 94.0269 53.0992 94.143 52.8038C94.2591 52.5084 94.3864 52.1532 94.5287 51.7156C94.8695 50.6724 95.1279 49.9955 95.2927 49.7001C95.4275 49.4608 95.596 49.3449 95.8657 49.3337C96.1466 49.3337 96.3525 49.4645 96.5173 49.7525C96.7121 50.0853 96.8244 50.5864 96.8506 51.2407C96.8918 52.299 96.7158 53.4844 96.3301 54.767C96.3113 54.8305 96.3188 54.8941 96.3525 54.9502C96.3862 55.0063 96.4387 55.0474 96.5023 55.0624L97.9741 55.4101C97.9929 55.4139 98.0116 55.4176 98.0266 55.4176C98.1202 55.4176 98.2063 55.3615 98.2438 55.2718C98.4797 54.7034 98.6595 54.0303 98.7793 53.2712C98.9029 52.5047 98.9479 51.7867 98.9254 51.1211Z" fill="white"/>
<path d="M93.675 89.0422V88.5112H96.4464V89.0422H95.3678V91.7383H94.7574V89.0422H93.675Z" fill="black"/>
<path d="M97.0903 91.7383V88.5112H97.682L98.7344 90.3847L99.783 88.5112H100.375V91.7383H99.783V89.6069L98.9029 91.1886H98.5584L97.682 89.6031V91.7383H97.0903Z" fill="black"/>
<path d="M41.3754 62.6123C41.2444 62.6759 41.1357 62.8442 41.1357 62.99V76.3957C41.1357 76.5415 41.2444 76.7135 41.3754 76.7733L43.5438 77.7231C43.6786 77.7792 43.791 77.7044 43.791 77.5586V61.8233C43.791 61.6775 43.6786 61.6027 43.5438 61.6588L41.3754 62.6123Z" fill="#002C4D"/>
<path d="M46.7047 60.6639C46.5624 60.6975 46.4463 60.8434 46.4463 60.9892V78.396C46.4463 78.5418 46.5624 78.6876 46.7047 78.7213L48.8394 79.1513C48.9817 79.1775 49.1015 79.0765 49.1015 78.9307V60.447C49.1015 60.3011 48.9854 60.2039 48.8394 60.2264L46.7047 60.6639Z" fill="#002C4D"/>
<path d="M53.0788 59.8901C52.6331 59.8901 52.0152 59.9126 52.0152 59.9126C51.8691 59.9201 51.7493 60.0435 51.7493 60.1893V79.2003C51.7493 79.3461 51.8691 79.4695 52.0152 79.477C52.0152 79.477 52.6331 79.4994 53.0788 79.4994C53.5244 79.4994 54.1386 79.477 54.1386 79.477C54.2847 79.4695 54.4045 79.3461 54.4045 79.2003V60.1893C54.4045 60.0435 54.2847 59.9201 54.1386 59.9126C54.1424 59.9126 53.5244 59.8901 53.0788 59.8901Z" fill="#002C4D"/>
<path d="M57.3217 60.2341C57.1794 60.2079 57.0596 60.3089 57.0596 60.4547V78.9385C57.0596 79.0843 57.1757 79.1815 57.3217 79.1591L59.4564 78.7291C59.5987 78.6954 59.7148 78.5496 59.7148 78.4037V60.9895C59.7148 60.8436 59.5987 60.6978 59.4564 60.6641L57.3217 60.2341Z" fill="#002C4D"/>
<path d="M62.6136 61.6627C62.4788 61.6066 62.3665 61.6814 62.3665 61.8272V77.5625C62.3665 77.7084 62.4751 77.7831 62.6136 77.7271L64.782 76.7773C64.9131 76.7137 65.0217 76.5454 65.0217 76.3996V62.9939C65.0217 62.8481 64.9131 62.6798 64.782 62.6162L62.6136 61.6627Z" fill="#002C4D"/>
<path d="M52.8577 26.8412C52.9776 26.5757 53.176 26.5757 53.2959 26.8412L56.2844 33.4412C56.4043 33.7067 56.7413 33.9535 57.0334 33.9872L64.5423 34.8173C64.8344 34.8509 64.8943 35.0342 64.6734 35.2286L59.1644 40.0823C58.9434 40.2768 58.8161 40.6694 58.876 40.9573L60.4377 48.2155C60.5014 48.5034 60.3366 48.6268 60.0782 48.4922L53.5468 45.0968C53.2884 44.9622 52.8615 44.9622 52.5993 45.0968L46.0792 48.4884C45.817 48.6231 45.656 48.4997 45.7159 48.2155L47.2626 41.0022C47.3225 40.7143 47.1952 40.3216 46.9742 40.1272L41.4653 35.2398C41.2443 35.0454 41.3042 34.8584 41.5964 34.8285L49.1089 33.9946C49.401 33.961 49.7381 33.7179 49.8579 33.4487L52.8577 26.8412Z" fill="#CE9700"/>
<path d="M136.249 45.0855C137.496 46.3494 139.009 47.3665 140.743 48.1107C142.484 48.8548 144.342 49.2362 146.267 49.2362C148.836 49.2362 151.233 48.5968 153.39 47.3329C155.547 46.069 157.274 44.3302 158.517 42.1613C159.76 39.9925 160.393 37.5881 160.393 35.0116C160.393 33.0896 160.022 31.2274 159.288 29.4736C158.558 27.7236 157.551 26.1905 156.3 24.9191C155.049 23.6477 153.529 22.6231 151.791 21.879C150.049 21.1311 148.188 20.7534 146.267 20.7534C143.694 20.7534 141.297 21.4003 139.14 22.6717C136.987 23.9431 135.268 25.6894 134.036 27.862C132.803 30.0308 132.178 32.439 132.178 35.0191C132.178 36.9524 132.545 38.8146 133.272 40.5609C134.002 42.2997 135.002 43.8216 136.249 45.0855ZM146.267 27.1627C148.476 27.1627 150.15 27.8657 151.394 29.3128C152.641 30.7675 153.274 32.682 153.274 35.0116C153.274 37.3413 152.641 39.2521 151.398 40.6918C150.154 42.1277 148.48 42.8232 146.271 42.8232C144.061 42.8232 142.391 42.1277 141.162 40.6918C139.93 39.2521 139.305 37.3413 139.305 35.0116C139.305 32.682 139.934 30.7637 141.174 29.3091C142.406 27.8657 144.072 27.1627 146.267 27.1627Z" fill="#002C4D"/>
<path d="M164.797 48.791H170.797C171.108 48.791 171.359 48.5405 171.359 48.2301V37.6851H183.826C184.137 37.6851 184.388 37.4345 184.388 37.1242V31.99C184.388 31.6796 184.137 31.4291 183.826 31.4291H171.359V27.3981H185.268C185.579 27.3981 185.83 27.1475 185.83 26.8372V21.703C185.83 21.3926 185.579 21.1421 185.268 21.1421H164.797C164.487 21.1421 164.236 21.3926 164.236 21.703V48.2301C164.236 48.5367 164.487 48.791 164.797 48.791Z" fill="#002C4D"/>
<path d="M190.354 48.791H196.353C196.664 48.791 196.915 48.5405 196.915 48.2301V37.6851H209.382C209.693 37.6851 209.944 37.4345 209.944 37.1242V31.99C209.944 31.6796 209.693 31.4291 209.382 31.4291H196.915V27.3981H210.824C211.135 27.3981 211.386 27.1475 211.386 26.8372V21.703C211.386 21.3926 211.135 21.1421 210.824 21.1421H190.354C190.043 21.1421 189.792 21.3926 189.792 21.703V48.2301C189.792 48.5367 190.043 48.791 190.354 48.791Z" fill="#002C4D"/>
<path d="M216.082 48.791H222.082C222.392 48.791 222.643 48.5405 222.643 48.2301V21.703C222.643 21.3926 222.392 21.1421 222.082 21.1421H216.082C215.771 21.1421 215.52 21.3926 215.52 21.703V48.2301C215.52 48.5367 215.775 48.791 216.082 48.791Z" fill="#002C4D"/>
<path d="M241.863 49.2364C244.653 49.2364 247.278 48.8101 249.668 47.965C249.941 47.8678 250.095 47.5798 250.027 47.2994L248.821 42.4532C248.784 42.3073 248.69 42.1802 248.555 42.1017C248.424 42.0269 248.267 42.0044 248.121 42.0493C246.312 42.5653 244.488 42.8271 242.706 42.8271C239.713 42.8271 237.421 42.0979 235.893 40.662C234.354 39.2149 233.605 37.3564 233.605 34.9782C233.605 32.5999 234.354 30.7489 235.89 29.313C237.418 27.8883 239.71 27.1666 242.702 27.1666C244.496 27.1666 246.32 27.4284 248.117 27.9444C248.263 27.9855 248.417 27.9668 248.548 27.892C248.679 27.8173 248.776 27.6939 248.814 27.548L250.14 22.6083C250.214 22.3241 250.061 22.0325 249.784 21.9352C247.578 21.1537 244.911 20.7573 241.863 20.7573C239.65 20.7573 237.556 21.1313 235.642 21.8642C233.725 22.6008 232.077 23.6217 230.744 24.9005C229.414 26.1794 228.358 27.7013 227.609 29.4289C226.86 31.1603 226.478 33.0262 226.478 34.9744C226.478 36.9264 226.86 38.7923 227.621 40.5274C228.377 42.2587 229.437 43.7844 230.774 45.067C232.111 46.3496 233.759 47.3779 235.669 48.1183C237.575 48.8624 239.661 49.2364 241.863 49.2364Z" fill="#002C4D"/>
<path d="M254.398 48.791H260.397C260.708 48.791 260.959 48.5405 260.959 48.2301V21.703C260.959 21.3926 260.708 21.1421 260.397 21.1421H254.398C254.087 21.1421 253.836 21.3926 253.836 21.703V48.2301C253.836 48.5367 254.087 48.791 254.398 48.791Z" fill="#002C4D"/>
<path d="M265.142 48.791H271.026C271.258 48.791 271.468 48.6452 271.55 48.4283L273.479 43.3278H282.516L284.407 48.4246C284.489 48.6452 284.699 48.791 284.935 48.791H290.796C290.979 48.791 291.152 48.7013 291.257 48.548C291.361 48.3946 291.384 48.2039 291.32 48.0319L281.268 21.5048C281.186 21.2879 280.976 21.1421 280.744 21.1421H275.25C275.018 21.1421 274.808 21.2842 274.726 21.5048L264.618 48.0319C264.554 48.2039 264.577 48.3984 264.682 48.548C264.787 48.6975 264.959 48.791 265.142 48.791ZM275.306 37.7113L277.995 29.4884L280.654 37.7113H275.306Z" fill="#002C4D"/>
<path d="M314.438 42.535H302.203V21.703C302.203 21.3926 301.952 21.1421 301.642 21.1421H295.642C295.331 21.1421 295.08 21.3926 295.08 21.703V48.2301C295.08 48.5405 295.331 48.791 295.642 48.791H314.438C314.749 48.791 315 48.5405 315 48.2301V43.096C315 42.7856 314.749 42.535 314.438 42.535Z" fill="#002C4D"/>
<path d="M148.593 57.934C148.51 57.7171 148.3 57.5713 148.068 57.5713H142.672C142.439 57.5713 142.23 57.7134 142.147 57.934L132.215 83.9974C132.152 84.1694 132.174 84.3639 132.279 84.5135C132.384 84.6668 132.556 84.7565 132.743 84.7565H138.522C138.754 84.7565 138.964 84.6107 139.046 84.3938L140.938 79.3868H149.802L151.656 84.3901C151.738 84.6107 151.948 84.7565 152.184 84.7565H157.944C158.127 84.7565 158.3 84.6668 158.405 84.5135C158.509 84.3602 158.532 84.1694 158.468 83.9974L148.593 57.934ZM147.967 73.8488H142.739L145.368 65.8129L147.967 73.8488Z" fill="#002C4D"/>
<path d="M178.212 57.5713H155.21C154.899 57.5713 154.648 57.8218 154.648 58.1322V63.1766C154.648 63.487 154.899 63.7375 155.21 63.7375H163.221V84.1956C163.221 84.506 163.472 84.7565 163.782 84.7565H169.677C169.988 84.7565 170.239 84.506 170.239 84.1956V63.7375H178.212C178.523 63.7375 178.774 63.487 178.774 63.1766V58.1322C178.774 57.8218 178.523 57.5713 178.212 57.5713Z" fill="#002C4D"/>
<path d="M205.457 57.5713H182.455C182.144 57.5713 181.894 57.8218 181.894 58.1322V63.1766C181.894 63.487 182.144 63.7375 182.455 63.7375H190.466V84.1956C190.466 84.506 190.717 84.7565 191.028 84.7565H196.922C197.233 84.7565 197.484 84.506 197.484 84.1956V63.7375H205.457C205.768 63.7375 206.019 63.487 206.019 63.1766V58.1322C206.019 57.8218 205.768 57.5713 205.457 57.5713Z" fill="#002C4D"/>
<path d="M229.122 57.5713H209.948C209.637 57.5713 209.386 57.8218 209.386 58.1322V84.1956C209.386 84.506 209.637 84.7565 209.948 84.7565H229.122C229.433 84.7565 229.684 84.506 229.684 84.1956V79.1512C229.684 78.8408 229.433 78.5903 229.122 78.5903H216.404V73.845H228.377C228.688 73.845 228.939 73.5945 228.939 73.2841V68.2397C228.939 67.9294 228.688 67.6788 228.377 67.6788H216.404V63.7375H229.122C229.433 63.7375 229.684 63.487 229.684 63.1766V58.1322C229.684 57.8218 229.433 57.5713 229.122 57.5713Z" fill="#002C4D"/>
<path d="M260.97 57.5713H255.326C255.128 57.5713 254.944 57.676 254.843 57.848L247.29 70.6516L239.736 57.848C239.635 57.676 239.451 57.5713 239.253 57.5713H233.609C233.298 57.5713 233.047 57.8218 233.047 58.1322V84.1956C233.047 84.506 233.298 84.7565 233.609 84.7565H239.253C239.563 84.7565 239.814 84.506 239.814 84.1956V70.532L245.2 79.6672C245.301 79.8393 245.484 79.944 245.683 79.944H248.859C249.057 79.944 249.241 79.8393 249.342 79.671L254.765 70.5544V84.1994C254.765 84.5097 255.016 84.7603 255.326 84.7603H260.97C261.281 84.7603 261.532 84.5097 261.532 84.1994V58.1359C261.532 57.8218 261.281 57.5713 260.97 57.5713Z" fill="#002C4D"/>
<path d="M283.841 58.7941C282.411 57.9826 280.778 57.5713 278.995 57.5713H265.285C264.974 57.5713 264.723 57.8218 264.723 58.1322V84.1956C264.723 84.506 264.974 84.7565 265.285 84.7565H271.082C271.393 84.7565 271.644 84.506 271.644 84.1956V75.8718H278.977C280.755 75.8718 282.392 75.4455 283.838 74.6004C285.287 73.7553 286.414 72.6185 287.197 71.2237C287.976 69.8327 288.369 68.2883 288.369 66.6393C288.369 64.9865 287.972 63.4533 287.186 62.0884C286.403 60.7124 285.276 59.6092 283.841 58.7941ZM271.7 63.3561H278.007C278.894 63.3561 279.636 63.6627 280.276 64.2984C280.913 64.9304 281.224 65.6969 281.224 66.6355C281.224 67.5816 280.909 68.3631 280.261 69.0287C279.617 69.6906 278.883 70.0122 278.01 70.0122H271.655L271.7 63.3561Z" fill="#002C4D"/>
<path d="M314.349 57.5713H291.346C291.036 57.5713 290.785 57.8218 290.785 58.1322V63.1766C290.785 63.487 291.036 63.7375 291.346 63.7375H299.357V84.1956C299.357 84.506 299.608 84.7565 299.919 84.7565H305.814C306.124 84.7565 306.375 84.506 306.375 84.1956V63.7375H314.349C314.659 63.7375 314.91 63.487 314.91 63.1766V58.1322C314.91 57.8218 314.659 57.5713 314.349 57.5713Z" fill="#002C4D"/>
</g>
<defs>
<clipPath id="clip0">
<rect width="315" height="106" fill="white"/>
</clipPath>
</defs>
</svg>
