<svg width="320" height="212" viewBox="0 0 320 212" fill="none" xmlns="http://www.w3.org/2000/svg">
<rect x="1" y="1" width="318" height="210" rx="9" stroke="#CCCCCC" stroke-width="2"/>
<path d="M117.115 197.001C117.404 188.202 118.866 179.62 121.813 171.303C124.085 164.887 127.268 159.019 132.198 154.225C136.095 150.437 140.74 148.016 146.09 146.996C146.63 146.895 147.276 146.962 147.797 147.164C156.065 150.341 164.318 150.356 172.6 147.208C173.154 146.996 173.854 146.953 174.442 147.068C181.928 148.555 187.639 152.738 192.024 158.822C197.286 166.114 200.055 174.441 201.56 183.182C202.346 187.745 202.607 192.395 203.108 197.006C174.442 197.001 145.781 197.001 117.115 197.001ZM146.62 167.9C146.625 164.661 144.011 162.028 140.794 162.037C137.605 162.047 134.947 164.742 134.972 167.934C135.001 171.077 137.596 173.661 140.75 173.7C143.987 173.734 146.611 171.139 146.62 167.9Z" fill="#E6E6E6"/>
<path d="M107 197.001C107.294 192.231 107.338 187.427 107.941 182.691C109.026 174.196 111.553 166.109 115.967 158.697C121.707 149.056 129.892 142.433 140.359 138.987C141.044 140.671 141.7 142.269 142.371 143.92C141.02 144.464 139.433 145.008 137.923 145.716C130.828 149.066 125.908 154.634 122.218 161.368C117.621 169.763 115.306 178.869 114.148 188.303C113.796 191.196 113.541 194.098 113.242 196.996C111.168 197.001 109.084 197.001 107 197.001Z" fill="#E6E6E6"/>
<path d="M206.972 197.001C206.422 190.296 205.708 183.615 204.015 177.079C201.951 169.118 198.999 161.571 193.818 155.044C189.848 150.038 184.948 146.327 178.822 144.315C178.542 144.224 178.272 144.103 177.997 143.988C177.963 143.973 177.954 143.906 177.992 143.988C178.701 142.467 179.381 141.023 180.226 139.218C182.951 140.652 185.927 141.971 188.643 143.699C198.883 150.226 205.322 159.703 209.34 170.952C212.225 179.033 213.551 187.398 213.614 195.971C213.619 196.313 213.551 196.65 213.517 196.991C211.337 197.001 209.152 197.001 206.972 197.001Z" fill="#E6E6E6"/>
<path d="M161.033 82.094C153.619 81.9929 147.069 83.0133 141.025 86.3007C135.656 89.2176 131.971 93.5591 130.076 99.3976C129.313 101.742 128.537 104.091 127.572 106.358C127.003 107.691 126.241 109.178 124.471 109.193C122.821 109.207 121.991 107.903 121.268 106.646C119.396 103.412 118.764 99.826 118.277 96.1775C117.428 89.7855 119.56 83.8893 121.085 77.8583C122.561 72.0246 123.737 66.1188 124.963 60.2225C125.213 59.0288 125.088 57.7581 125.146 56.5259C125.242 54.4129 126.217 53.6476 128.368 54.0038C131.884 54.591 135.41 55.1253 138.917 55.7847C141.531 56.2805 143.808 55.674 145.921 54.1434C149.534 51.5346 153.161 48.9403 156.783 46.3459C159.291 44.5554 160.878 44.5506 163.42 46.3363C167.149 48.9547 170.882 51.5683 174.601 54.2011C176.728 55.7077 179.02 56.2708 181.624 55.7799C185.126 55.1157 188.652 54.5814 192.173 53.999C194.141 53.6717 195.309 54.3504 195.313 56.112C195.323 64.3956 197.889 72.169 200.002 80.0339C201.131 84.231 202.505 88.3753 202.399 92.8035C202.293 97.1835 201.738 101.487 199.828 105.491C199.327 106.545 198.642 107.561 197.836 108.403C196.659 109.635 195.092 109.563 194.141 108.158C193.186 106.747 192.434 105.169 191.773 103.59C190.524 100.591 189.718 97.3664 188.16 94.5459C185.03 88.8806 179.835 85.6943 173.757 83.8364C169.406 82.5079 164.954 81.9111 161.033 82.094Z" fill="#E6E6E6"/>
<path d="M155.983 85.7329C155.983 98.8057 155.983 111.782 155.983 124.942C154.883 124.768 153.88 124.581 152.872 124.456C152.24 124.374 151.584 124.282 150.957 124.364C148.926 124.629 148.174 126.121 149.191 127.902C150.339 129.904 152.216 131.083 154.348 131.637C155.843 132.027 156.137 132.734 156.074 134.101C155.973 136.46 156.045 138.833 156.045 141.673C152.809 140.816 149.722 140.205 146.789 139.16C144.435 138.323 142.241 137.009 140.041 135.786C139.578 135.526 139.144 134.737 139.139 134.193C139.091 120.355 139.096 106.517 139.129 92.6736C139.129 92.1731 139.409 91.5088 139.79 91.1912C143.442 88.1251 150.995 85.5885 155.983 85.7329ZM148.217 103.932C146.669 103.898 145.366 105.126 145.304 106.685C145.236 108.322 146.48 109.669 148.101 109.708C149.63 109.746 150.971 108.49 151.039 106.955C151.111 105.361 149.809 103.97 148.217 103.932Z" fill="#E6E6E6"/>
<path d="M164.265 85.5837C168.813 85.8003 173.063 86.7871 177.042 88.7846C177.423 88.9771 177.64 89.8435 177.64 90.4018C177.679 98.9598 177.664 107.513 177.664 116.071C177.664 122.699 177.64 129.327 177.688 135.954C177.698 137.004 177.36 137.514 176.405 137.952C172.561 139.728 168.572 140.922 164.255 141.379C164.255 138.318 164.255 135.367 164.255 132.551C165.871 131.892 167.491 131.396 168.939 130.578C169.884 130.044 170.767 129.173 171.336 128.244C172.469 126.391 171.476 124.566 169.305 124.47C168.041 124.412 166.758 124.73 165.485 124.884C165.099 124.932 164.718 124.99 164.265 125.052C164.265 111.893 164.265 98.8106 164.265 85.5837ZM170.414 103.941C168.794 103.975 167.54 105.308 167.598 106.94C167.655 108.485 168.972 109.741 170.511 109.713C172.108 109.684 173.415 108.297 173.342 106.699C173.28 105.159 171.953 103.913 170.414 103.941Z" fill="#E6E6E6"/>
<path d="M185.893 131.454C185.893 119.844 185.893 108.605 185.893 97.3615C186.018 97.323 186.149 97.2797 186.274 97.2412C186.935 99.1039 187.543 100.986 188.266 102.82C189.144 105.058 189.954 107.349 191.098 109.452C192.236 111.551 194.132 112.807 196.775 112.711C195 120.008 191.44 126.111 185.893 131.454Z" fill="#E6E6E6"/>
<path d="M130.809 107.45C130.809 114.299 130.809 120.74 130.809 127.218C128.214 125.173 123.945 116.571 123.656 112.774C127.263 112.408 128.103 111.806 130.809 107.45Z" fill="#E6E6E6"/>
<path d="M122.492 24.892V31H119.264V13.648H124.904C126.064 13.648 127.068 13.784 127.916 14.056C128.764 14.328 129.464 14.708 130.016 15.196C130.568 15.684 130.976 16.268 131.24 16.948C131.512 17.628 131.648 18.372 131.648 19.18C131.648 20.02 131.508 20.792 131.228 21.496C130.948 22.192 130.528 22.792 129.968 23.296C129.408 23.8 128.704 24.192 127.856 24.472C127.016 24.752 126.032 24.892 124.904 24.892H122.492ZM122.492 22.372H124.904C125.496 22.372 126.012 22.3 126.452 22.156C126.892 22.004 127.256 21.792 127.544 21.52C127.84 21.24 128.06 20.904 128.204 20.512C128.348 20.112 128.42 19.668 128.42 19.18C128.42 18.716 128.348 18.296 128.204 17.92C128.06 17.544 127.844 17.224 127.556 16.96C127.268 16.696 126.904 16.496 126.464 16.36C126.024 16.216 125.504 16.144 124.904 16.144H122.492V22.372ZM148.751 31H145.511V23.416H137.363V31H134.123V13.648H137.363V21.112H145.511V13.648H148.751V31ZM169.164 22.324C169.164 23.596 168.952 24.776 168.528 25.864C168.112 26.944 167.52 27.88 166.752 28.672C165.984 29.464 165.06 30.084 163.98 30.532C162.9 30.972 161.7 31.192 160.38 31.192C159.068 31.192 157.872 30.972 156.792 30.532C155.712 30.084 154.784 29.464 154.008 28.672C153.24 27.88 152.644 26.944 152.22 25.864C151.796 24.776 151.584 23.596 151.584 22.324C151.584 21.052 151.796 19.876 152.22 18.796C152.644 17.708 153.24 16.768 154.008 15.976C154.784 15.184 155.712 14.568 156.792 14.128C157.872 13.68 159.068 13.456 160.38 13.456C161.26 13.456 162.088 13.56 162.864 13.768C163.64 13.968 164.352 14.256 165 14.632C165.648 15 166.228 15.452 166.74 15.988C167.26 16.516 167.7 17.108 168.06 17.764C168.42 18.42 168.692 19.132 168.876 19.9C169.068 20.668 169.164 21.476 169.164 22.324ZM165.864 22.324C165.864 21.372 165.736 20.52 165.48 19.768C165.224 19.008 164.86 18.364 164.388 17.836C163.916 17.308 163.34 16.904 162.66 16.624C161.988 16.344 161.228 16.204 160.38 16.204C159.532 16.204 158.768 16.344 158.088 16.624C157.416 16.904 156.84 17.308 156.36 17.836C155.888 18.364 155.524 19.008 155.268 19.768C155.012 20.52 154.884 21.372 154.884 22.324C154.884 23.276 155.012 24.132 155.268 24.892C155.524 25.644 155.888 26.284 156.36 26.812C156.84 27.332 157.416 27.732 158.088 28.012C158.768 28.292 159.532 28.432 160.38 28.432C161.228 28.432 161.988 28.292 162.66 28.012C163.34 27.732 163.916 27.332 164.388 26.812C164.86 26.284 165.224 25.644 165.48 24.892C165.736 24.132 165.864 23.276 165.864 22.324ZM183.532 13.648V16.3H178.3V31H175.072V16.3H169.84V13.648H183.532ZM201.765 22.324C201.765 23.596 201.553 24.776 201.129 25.864C200.713 26.944 200.121 27.88 199.353 28.672C198.585 29.464 197.661 30.084 196.581 30.532C195.501 30.972 194.301 31.192 192.981 31.192C191.669 31.192 190.473 30.972 189.393 30.532C188.313 30.084 187.385 29.464 186.609 28.672C185.841 27.88 185.245 26.944 184.821 25.864C184.397 24.776 184.185 23.596 184.185 22.324C184.185 21.052 184.397 19.876 184.821 18.796C185.245 17.708 185.841 16.768 186.609 15.976C187.385 15.184 188.313 14.568 189.393 14.128C190.473 13.68 191.669 13.456 192.981 13.456C193.861 13.456 194.689 13.56 195.465 13.768C196.241 13.968 196.953 14.256 197.601 14.632C198.249 15 198.829 15.452 199.341 15.988C199.861 16.516 200.301 17.108 200.661 17.764C201.021 18.42 201.293 19.132 201.477 19.9C201.669 20.668 201.765 21.476 201.765 22.324ZM198.465 22.324C198.465 21.372 198.337 20.52 198.081 19.768C197.825 19.008 197.461 18.364 196.989 17.836C196.517 17.308 195.941 16.904 195.261 16.624C194.589 16.344 193.829 16.204 192.981 16.204C192.133 16.204 191.369 16.344 190.689 16.624C190.017 16.904 189.441 17.308 188.961 17.836C188.489 18.364 188.125 19.008 187.869 19.768C187.613 20.52 187.485 21.372 187.485 22.324C187.485 23.276 187.613 24.132 187.869 24.892C188.125 25.644 188.489 26.284 188.961 26.812C189.441 27.332 190.017 27.732 190.689 28.012C191.369 28.292 192.133 28.432 192.981 28.432C193.829 28.432 194.589 28.292 195.261 28.012C195.941 27.732 196.517 27.332 196.989 26.812C197.461 26.284 197.825 25.644 198.081 24.892C198.337 24.132 198.465 23.276 198.465 22.324Z" fill="#E6E6E6"/>
</svg>
