<svg width="34" height="34" viewBox="0 0 34 34" fill="none" xmlns="http://www.w3.org/2000/svg">
<path d="M28.6153 7.15381H11.5384C9.11687 7.15381 7.15381 9.11687 7.15381 11.5384V28.6153C7.15381 31.0369 9.11687 33 11.5384 33H28.6153C31.0369 33 33 31.0369 33 28.6153V11.5384C33 9.11687 31.0369 7.15381 28.6153 7.15381Z" stroke="#12293C" stroke-linejoin="round"/>
<path d="M26.8077 7.15385L26.8462 5.30769C26.8429 4.16622 26.388 3.07243 25.5809 2.26528C24.7737 1.45813 23.6799 1.00325 22.5385 1H5.92308C4.61858 1.00386 3.36862 1.52377 2.4462 2.4462C1.52377 3.36862 1.00386 4.61858 1 5.92308V22.5385C1.00325 23.6799 1.45813 24.7737 2.26528 25.5809C3.07243 26.388 4.16622 26.8429 5.30769 26.8462H7.15385" stroke="#12293C" stroke-linecap="round" stroke-linejoin="round"/>
<path d="M20.0771 13.9229V26.2305" stroke="#12293C" stroke-linecap="round" stroke-linejoin="round"/>
<path d="M26.2305 20.0771H13.9229" stroke="#12293C" stroke-linecap="round" stroke-linejoin="round"/>
</svg>
